<svg width="269" height="218" viewBox="0 0 269 218" fill="none" xmlns="http://www.w3.org/2000/svg">
<g clip-path="url(#clip0)">
<path d="M42.7177 0L24.9303 34.694H28.521V62.9856H10.4251L0 83.3192L129.175 149.547L171.893 66.228L42.7177 0Z" fill="#F2F2F2"/>
<path d="M237.004 22.5684H38.9621V121.926H237.004V22.5684Z" fill="#3F3D56"/>
<path opacity="0.3" d="M212.922 58.2695H66.7485V58.6063H212.922V58.2695Z" fill="#F9A826"/>
<path opacity="0.3" d="M213.09 66.6904H66.9169V67.0272H213.09V66.6904Z" fill="#F9A826"/>
<path opacity="0.3" d="M213.09 83.5303H66.9169V83.8671H213.09V83.5303Z" fill="#F9A826"/>
<path opacity="0.3" d="M213.09 90.9404H66.9169V91.2772H213.09V90.9404Z" fill="#F9A826"/>
<path opacity="0.3" d="M213.09 75.1104H66.9169V75.4472H213.09V75.1104Z" fill="#F9A826"/>
<path d="M190.861 217.915C225.459 217.915 253.507 215.352 253.507 212.19C253.507 209.027 225.459 206.464 190.861 206.464C156.263 206.464 128.215 209.027 128.215 212.19C128.215 215.352 156.263 217.915 190.861 217.915Z" fill="#3F3D56"/>
<path d="M70.9723 91.1845L70.5075 90.6968L92.2654 69.9587L111.445 83.7549L126.955 66.559L133.756 72.3399L152.257 61.2395L172.807 75.0515L205.059 56.7061L205.392 57.2914L172.777 75.8433L152.237 62.0373L133.688 73.1661L127.017 67.4956L111.541 84.6538L92.3254 70.832L70.9723 91.1845Z" fill="#F9A826"/>
<path d="M133.63 200.685C135.213 206.536 140.635 210.16 140.635 210.16C140.635 210.16 143.49 204.297 141.907 198.445C140.324 192.594 134.902 188.97 134.902 188.97C134.902 188.97 132.047 194.833 133.63 200.685Z" fill="#3F3D56"/>
<path d="M135.956 199.426C140.299 203.654 140.83 210.154 140.83 210.154C140.83 210.154 134.318 209.799 129.974 205.57C125.631 201.342 125.1 194.842 125.1 194.842C125.1 194.842 131.612 195.197 135.956 199.426Z" fill="#FF9A02"/>
<path opacity="0.4" d="M257.717 29.3042C263.948 29.3042 269 24.2527 269 18.0213C269 11.7898 263.948 6.73828 257.717 6.73828C251.486 6.73828 246.434 11.7898 246.434 18.0213C246.434 24.2527 251.486 29.3042 257.717 29.3042Z" fill="#F9A826"/>
<path opacity="0.4" d="M236.835 31.3259C241.206 31.3259 244.75 27.7823 244.75 23.411C244.75 19.0397 241.206 15.4961 236.835 15.4961C232.464 15.4961 228.92 19.0397 228.92 23.411C228.92 27.7823 232.464 31.3259 236.835 31.3259Z" fill="#F9A826"/>
<path opacity="0.4" d="M227.068 172.783C229.393 172.783 231.278 170.899 231.278 168.573C231.278 166.248 229.393 164.363 227.068 164.363C224.743 164.363 222.858 166.248 222.858 168.573C222.858 170.899 224.743 172.783 227.068 172.783Z" fill="#F9A826"/>
<path opacity="0.4" d="M155.328 193.666C157.095 193.666 158.528 192.233 158.528 190.466C158.528 188.699 157.095 187.267 155.328 187.267C153.561 187.267 152.129 188.699 152.129 190.466C152.129 192.233 153.561 193.666 155.328 193.666Z" fill="#F9A826"/>
<path opacity="0.4" d="M144.55 152.238C146.876 152.238 148.761 150.354 148.761 148.028C148.761 145.703 146.876 143.818 144.55 143.818C142.225 143.818 140.34 145.703 140.34 148.028C140.34 150.354 142.225 152.238 144.55 152.238Z" fill="#F9A826"/>
<path d="M204.839 62.8175C207.257 62.8175 209.217 60.8572 209.217 58.439C209.217 56.0209 207.257 54.0605 204.839 54.0605C202.42 54.0605 200.46 56.0209 200.46 58.439C200.46 60.8572 202.42 62.8175 204.839 62.8175Z" fill="#F9A826"/>
<path d="M176.39 137.745L172.678 138.157C172.678 138.157 171.028 145.58 172.678 155.479C174.327 165.377 176.39 175.275 176.39 175.275C176.39 175.275 178.039 207.443 178.864 207.856C179.689 208.268 187.112 210.743 187.525 208.268C187.937 205.794 187.937 149.292 187.937 149.292L193.711 176.512C193.711 176.512 194.536 210.743 196.186 210.743C197.835 210.743 203.197 210.33 203.197 207.443C203.197 204.556 204.434 166.614 204.434 166.614C204.434 166.614 204.022 138.569 202.372 137.745C200.722 136.92 176.39 137.745 176.39 137.745Z" fill="#2F2E41"/>
<path d="M179.689 206.618C179.689 206.618 175.977 206.205 175.152 206.618C174.327 207.03 173.09 209.917 175.152 211.567C177.214 213.217 182.576 215.691 184.225 215.691C185.369 215.64 186.492 215.36 187.525 214.866L186.7 207.855L179.689 206.618Z" fill="#2F2E41"/>
<path d="M196.186 208.681L196.598 214.455C196.598 214.455 201.959 215.28 202.372 214.455C202.784 213.63 206.908 211.568 207.321 211.156C207.733 210.743 208.146 206.207 205.671 205.794C203.197 205.382 202.372 206.619 202.372 206.619L196.186 208.681Z" fill="#2F2E41"/>
<path d="M161.542 103.102C161.542 103.102 151.644 112.587 152.882 117.536C154.119 122.485 164.017 136.92 164.017 136.92C164.017 136.92 173.503 141.869 174.74 136.92C175.977 131.971 168.141 133.208 168.141 133.208L161.955 118.361L168.966 108.463L161.542 103.102Z" fill="#FFB8B8"/>
<path d="M205.77 88.671C205.77 88.671 214.786 82.8727 214.578 78.8892C214.369 74.9056 208.933 62.3454 208.933 62.3454C208.933 62.3454 204.681 53.5044 202.991 57.1175C201.3 60.7306 205.212 64.5767 205.212 64.5767L207.738 76.8978L200.875 83.4448L205.77 88.671Z" fill="#FFB8B8"/>
<path d="M183.401 80.4183C187.501 80.4183 190.824 77.0947 190.824 72.9948C190.824 68.8949 187.501 65.5713 183.401 65.5713C179.301 65.5713 175.977 68.8949 175.977 72.9948C175.977 77.0947 179.301 80.4183 183.401 80.4183Z" fill="#FFB8B8"/>
<path d="M179.689 77.5317L180.926 85.3677L189.999 83.718C189.999 83.718 189.587 75.882 189.587 75.0572C189.587 74.2323 179.689 77.5317 179.689 77.5317Z" fill="#FFB8B8"/>
<path d="M179.276 85.3668C179.276 85.3668 189.587 82.8923 190.824 83.7172C192.061 84.542 198.248 85.3668 198.248 85.3668L205.259 96.0897L203.197 109.7C203.197 109.7 202.784 131.558 203.609 135.269C204.434 138.981 208.971 139.394 199.485 140.218C189.999 141.043 188.35 139.806 181.751 141.456C175.152 143.105 169.791 140.631 171.441 138.981C173.09 137.332 175.977 110.937 172.678 108.462C169.378 105.988 168.141 93.2028 168.141 93.2028C168.141 93.2028 179.276 87.4289 179.276 85.3668Z" fill="#FF9A02"/>
<path d="M197.01 86.6053L198.248 85.3681L200.722 82.8936C200.722 82.8936 208.764 86.3991 208.352 87.6364C207.94 88.8736 205.259 96.0909 205.259 96.0909L201.547 97.3282L197.01 86.6053Z" fill="#FF9A02"/>
<path d="M173.09 94.0289L168.141 93.2041C168.141 93.2041 164.429 97.3283 163.192 98.978C161.955 100.628 159.48 104.752 159.48 104.752L168.141 110.938L174.74 103.927L173.09 94.0289Z" fill="#FF9A02"/>
<path d="M185.991 64.0013L185.915 63.4066C185.411 63.4037 184.909 63.4826 184.43 63.6401C184.381 63.2815 184.412 62.9164 184.521 62.5714C184.034 62.6967 183.57 62.8985 183.146 63.1693L182.846 62.084L178.723 64.1159C177.243 64.8452 175.683 65.6468 174.837 67.0633C173.894 68.6425 174.058 70.672 174.703 72.3947C175.347 74.1174 176.419 75.642 177.278 77.2686C177.604 77.9681 177.996 78.635 178.448 79.2603C180.004 81.2003 183.033 81.5922 185.227 80.4213C186.062 80.019 186.728 79.3341 187.106 78.4881C187.266 77.9632 187.391 77.4284 187.481 76.8871C187.753 75.7785 188.068 73.4901 188.968 72.7888C189.365 72.4802 190.15 73.5032 190.478 73.1232C191.322 72.1466 191.145 70.6404 190.621 69.4609C190.118 68.2763 189.53 67.1296 188.862 66.0297C188.579 65.5875 185.982 63.93 185.991 64.0013Z" fill="#2F2E41"/>
<path d="M25.8267 38.7354H4.27112V60.2909H25.8267V38.7354Z" fill="#FF9A02"/>
</g>
<defs>
<clipPath id="clip0">
<rect width="269" height="217.916" fill="white"/>
</clipPath>
</defs>
</svg>
