<svg width="266" height="223" viewBox="0 0 266 223" fill="none" xmlns="http://www.w3.org/2000/svg">
<g clip-path="url(#clip0)">
<path d="M70.7388 135.569C70.0237 135.569 69.3014 135.558 68.5923 135.535L68.6085 135.02C69.6266 135.052 70.6656 135.061 71.6884 135.047L71.6955 135.562C71.3771 135.567 71.0582 135.569 70.7388 135.569ZM74.7969 135.449L74.7667 134.935C75.7863 134.875 76.819 134.79 77.8361 134.684L77.89 135.196C76.8651 135.304 75.8245 135.389 74.7969 135.449ZM65.4937 135.369C64.4656 135.29 63.4266 135.187 62.4054 135.062L62.4684 134.55C63.4817 134.674 64.5126 134.777 65.533 134.855L65.4937 135.369ZM80.9679 134.802L80.8906 134.293C81.9037 134.139 82.9246 133.961 83.9241 133.762L84.0245 134.267C83.0172 134.467 81.9888 134.647 80.9679 134.802ZM59.3349 134.614C58.3192 134.441 57.2939 134.244 56.2876 134.025L56.397 133.521C57.3956 133.738 58.4129 133.935 59.421 134.105L59.3349 134.614ZM87.0539 133.593L86.9301 133.092C87.9245 132.846 88.9245 132.574 89.9023 132.284L90.0488 132.779C89.0634 133.071 88.0559 133.345 87.0539 133.593ZM53.2709 133.297C52.2746 133.032 51.272 132.741 50.2908 132.43L50.4461 131.939C51.4198 132.247 52.4148 132.536 53.4033 132.799L53.2709 133.297ZM93.003 131.828L92.8338 131.341C93.7988 131.005 94.7693 130.643 95.719 130.263L95.9103 130.741C94.9536 131.124 93.9755 131.49 93.003 131.828H93.003ZM47.3463 131.424C46.3786 131.068 45.4049 130.684 44.4525 130.283L44.6526 129.808C45.5977 130.206 46.5639 130.587 47.5242 130.94L47.3463 131.424ZM98.758 129.525L98.5445 129.056C99.4713 128.635 100.403 128.185 101.313 127.72L101.548 128.179C100.63 128.648 99.6918 129.101 98.758 129.525H98.758ZM104.273 126.706L104.018 126.258C104.907 125.751 105.794 125.218 106.654 124.673L106.93 125.109C106.063 125.658 105.169 126.195 104.273 126.706H104.273ZM109.511 123.392L109.216 122.969C110.053 122.385 110.888 121.772 111.698 121.15L112.012 121.558C111.196 122.186 110.355 122.803 109.511 123.392ZM30.9467 122.666C30.1148 122.062 29.2836 121.429 28.4763 120.784L28.798 120.381C29.5991 121.021 30.4239 121.649 31.2495 122.249L30.9467 122.666ZM114.428 119.613L114.096 119.219C114.876 118.561 115.652 117.875 116.403 117.18L116.753 117.559C115.996 118.259 115.214 118.95 114.428 119.613H114.428ZM26.0948 118.792C25.32 118.113 24.5502 117.408 23.8069 116.694L24.1638 116.322C24.9015 117.03 25.6654 117.731 26.4343 118.404L26.0948 118.792ZM118.983 115.4L118.616 115.038C119.335 114.309 120.046 113.555 120.73 112.797L121.113 113.142C120.424 113.906 119.708 114.666 118.983 115.4ZM21.6174 114.495C20.9065 113.747 20.2044 112.974 19.5306 112.198L19.92 111.86C20.5886 112.631 21.2853 113.398 21.9909 114.139L21.6174 114.495ZM123.138 110.788L122.739 110.461C123.389 109.671 124.029 108.855 124.641 108.036L125.054 108.345C124.437 109.17 123.792 109.992 123.138 110.788L123.138 110.788ZM17.5509 109.81C16.9125 109.003 16.2839 108.17 15.6824 107.334L16.1007 107.033C16.6976 107.863 17.3215 108.689 17.9551 109.49L17.5509 109.81ZM126.856 105.816L126.43 105.526C127.005 104.68 127.568 103.809 128.103 102.937L128.543 103.206C128.003 104.085 127.436 104.963 126.856 105.816L126.856 105.816ZM13.9294 104.777C13.3677 103.916 12.818 103.03 12.2954 102.143L12.7394 101.882C13.2581 102.762 13.8037 103.641 14.3611 104.495L13.9294 104.777ZM130.108 100.522L129.657 100.273C130.152 99.3771 130.632 98.4574 131.086 97.539L131.548 97.7676C131.091 98.6928 130.606 99.6195 130.108 100.522ZM132.861 94.9493L132.388 94.7424C132.799 93.8044 133.194 92.8437 133.561 91.8872L134.042 92.072C133.672 93.0359 133.274 94.004 132.861 94.9493ZM8.1418 93.8371C7.74664 92.8887 7.36822 91.9184 7.0171 90.9529L7.50161 90.7767C7.84996 91.7349 8.22549 92.6977 8.6175 93.6387L8.1418 93.8371ZM135.09 89.1422L134.6 88.9801C134.922 88.0109 135.226 87.0202 135.502 86.0353L135.999 86.1747C135.72 87.1672 135.414 88.1656 135.09 89.1422ZM6.02416 88.0126C5.71747 87.0302 5.42928 86.0267 5.16765 85.0295L5.66625 84.8986C5.92588 85.8883 6.21193 86.8843 6.51623 87.8591L6.02416 88.0126ZM136.77 83.1685L136.268 83.0517C136.498 82.0583 136.709 81.0437 136.895 80.0366L137.402 80.1298C137.215 81.1449 137.002 82.167 136.77 83.1685V83.1685ZM4.44982 82.0102C4.23487 81.0034 4.04032 79.9777 3.87168 78.9612L4.38011 78.8766C4.54761 79.8856 4.74066 80.9035 4.95397 81.9025L4.44982 82.0102ZM137.893 77.0659L137.382 76.9959C137.521 75.9864 137.638 74.9569 137.73 73.9361L138.244 73.9824C138.15 75.0113 138.032 76.0486 137.893 77.0659V77.0659ZM3.43398 75.889C3.31241 74.8686 3.21262 73.8294 3.13723 72.8002L3.65145 72.7624C3.72607 73.784 3.82524 74.8152 3.94593 75.8281L3.43398 75.889ZM138.454 70.8866L137.939 70.8634C137.984 69.842 138.008 68.806 138.008 67.7844H138.523C138.523 68.8138 138.5 69.8576 138.454 70.8866ZM2.98106 69.7006C2.96344 69.0686 2.95451 68.4237 2.95438 67.7844C2.95438 67.3877 2.95777 66.9918 2.96457 66.5967L3.48004 66.6057C3.47325 66.9979 3.46985 67.3908 3.46985 67.7844C3.46997 68.4189 3.47891 69.059 3.49628 69.6865L2.98106 69.7006ZM3.60236 63.5284L3.0879 63.4962C3.15221 62.4662 3.24106 61.426 3.35168 60.4042L3.86413 60.4597C3.75426 61.4738 3.66629 62.5061 3.60236 63.5284H3.60236ZM137.675 60.3836C137.572 59.3674 137.43 58.8719 137.281 57.8601L137.791 57.7848C137.941 58.8043 138.07 59.5826 138.174 60.6065L137.675 60.3836ZM4.26545 57.4064L3.75602 57.3276C3.91395 56.3079 4.09744 55.2801 4.30144 54.2724L4.8066 54.3746C4.60423 55.3746 4.42213 56.3946 4.26545 57.4064ZM136.761 54.825C136.564 53.8195 136.342 52.8073 136.101 51.8166L136.602 51.6948C136.845 52.693 137.068 53.713 137.267 54.7261L136.761 54.825ZM5.48642 51.371L4.98643 51.2457C5.23674 50.2473 5.51398 49.2407 5.81047 48.2535L6.30404 48.4018C6.00994 49.3814 5.73484 50.3803 5.48642 51.371ZM135.304 48.8417C135.016 47.8603 134.702 46.873 134.37 45.907L134.858 45.7393C135.192 46.7128 135.509 47.7079 135.799 48.6968L135.304 48.8417ZM7.26087 45.4654L6.77459 45.2945C7.11715 44.32 7.48702 43.3409 7.87387 42.3844L8.35184 42.5777C7.96788 43.5268 7.60078 44.4985 7.26087 45.4654ZM133.302 43.0183C132.926 42.0696 132.523 41.1176 132.105 40.1885L132.575 39.9768C132.997 40.9131 133.403 41.8724 133.781 42.8282L133.302 43.0183ZM9.57445 39.7444L9.10604 39.5291C9.53656 38.5916 9.99478 37.6514 10.468 36.7347L10.926 36.971C10.4564 37.8808 10.0017 38.8138 9.57445 39.7444ZM130.779 37.4155C130.318 36.5055 129.829 35.5937 129.327 34.7056L129.775 34.4516C130.282 35.3466 130.774 36.2654 131.239 37.1825L130.779 37.4155ZM12.4036 34.2636L11.9569 34.0064C12.4711 33.1135 13.0133 32.2197 13.5687 31.3501L14.0031 31.6275C13.4521 32.4905 12.9138 33.3775 12.4036 34.2636ZM127.751 32.0638C127.206 31.1967 126.636 30.3329 126.056 29.4962L126.479 29.2025C127.064 30.0455 127.639 30.9159 128.187 31.7897L127.751 32.0638ZM15.7215 29.068L15.3001 28.771C15.8944 27.9282 16.5157 27.0881 17.1472 26.2742L17.5544 26.59C16.9278 27.398 16.3111 28.2316 15.7215 29.068ZM124.245 27.0081C123.623 26.1945 122.977 25.3857 122.321 24.6042L122.717 24.2731C123.376 25.0606 124.028 25.8755 124.654 26.6952L124.245 27.0081ZM19.4981 24.1991L19.1057 23.8648C19.7726 23.0815 20.4677 22.3019 21.1715 21.5476L21.5483 21.8992C20.8499 22.6479 20.1601 23.4217 19.4981 24.1991ZM120.291 22.2897C119.598 21.536 118.88 20.789 118.156 20.0696L118.52 19.7039C119.249 20.4289 119.973 21.1815 120.67 21.9409L120.291 22.2897ZM23.7004 19.6959L23.34 19.3274C24.0771 18.6063 24.8399 17.8933 25.6069 17.2085L25.9502 17.5931C25.189 18.2726 24.432 18.9802 23.7004 19.6959ZM115.923 17.9485C115.164 17.2602 114.38 16.5814 113.594 15.9309L113.923 15.5337C114.715 16.1891 115.504 16.8731 116.269 17.5666L115.923 17.9485ZM28.2929 15.5949L27.9674 15.1952C28.7647 14.5459 29.5886 13.9056 30.4164 13.292L30.7235 13.706C29.9018 14.3151 29.0841 14.9505 28.2929 15.5949ZM33.2368 11.9306L32.9491 11.5029C33.8023 10.9288 34.6807 10.3667 35.56 9.83169L35.8278 10.2722C34.9553 10.803 34.0836 11.361 33.2368 11.9306ZM38.4914 8.7343L38.244 8.282C39.1467 7.78805 40.0723 7.30882 40.995 6.85741L41.2215 7.32053C40.3059 7.76843 39.3873 8.244 38.4914 8.7343ZM100.701 7.54001C99.7839 7.08304 98.8443 6.64158 97.9085 6.22792L98.1169 5.7565C99.06 6.1733 100.007 6.61818 100.931 7.07865L100.701 7.54001ZM44.0126 6.03374L43.8077 5.56079C44.7511 5.15192 45.7161 4.75978 46.6758 4.3952L46.8588 4.87719C45.9063 5.23889 44.9488 5.62801 44.0126 6.03374ZM95.0576 5.04545C94.1031 4.67534 93.1263 4.32221 92.154 3.99601L92.3181 3.50722C93.2977 3.83606 94.2821 4.19183 95.2438 4.56496L95.0576 5.04545ZM49.7623 3.85041L49.6017 3.36062C50.5813 3.03945 51.5808 2.73704 52.5722 2.46206L52.71 2.95866C51.7261 3.23162 50.7343 3.53164 49.7623 3.85041ZM89.2122 3.084C88.2291 2.80374 87.2263 2.54273 86.2319 2.30828L86.3502 1.80665C87.3524 2.04287 88.3627 2.30588 89.3536 2.58816L89.2122 3.084ZM55.6959 2.2037L55.5811 1.70119C56.5854 1.47177 57.6084 1.26274 58.6216 1.08001L58.7132 1.58717C57.7076 1.76865 56.6925 1.97604 55.6959 2.2037ZM83.2188 1.67099C82.2151 1.48259 81.1927 1.31496 80.1799 1.17276L80.2514 0.662321C81.272 0.805661 82.3024 0.974547 83.314 1.16433L83.2188 1.67099ZM61.7558 1.11009L61.6876 0.59915C62.708 0.462983 63.7457 0.348461 64.7719 0.259112L64.8167 0.772567C63.7983 0.861411 62.7686 0.974926 61.7558 1.11009ZM77.121 0.814349C76.1057 0.718706 75.0722 0.64496 74.0491 0.595501L74.0743 0.0805448C75.1049 0.130507 76.1462 0.204758 77.1693 0.301167L77.121 0.814349ZM67.8904 0.574861L67.8687 0.0599053C68.8161 0.0203893 69.7816 0.000252581 70.7388 0L70.9721 0.000379017L70.9706 0.51585L70.7388 0.515471C69.7889 0.515708 68.8304 0.535719 67.8904 0.574856V0.574861Z" fill="#3F3D56"/>
<path d="M153.672 24.2793V191.343C153.671 193.334 152.879 195.242 151.471 196.648C150.063 198.055 148.155 198.846 146.165 198.846H78.3416C77.3556 198.848 76.3789 198.655 75.4676 198.279C74.5563 197.902 73.7281 197.35 73.0307 196.653C72.3333 195.956 71.7802 195.128 71.4032 194.217C71.0262 193.306 70.8327 192.329 70.8337 191.343V24.2793C70.8336 23.2934 71.0278 22.317 71.4051 21.4061C71.7823 20.4952 72.3354 19.6675 73.0325 18.9703C73.7297 18.2731 74.5574 17.7201 75.4683 17.3428C76.3793 16.9655 77.3556 16.7714 78.3416 16.7715H88.4912V18.073C88.491 19.7125 89.142 21.2849 90.301 22.4445C91.4601 23.604 93.0322 24.2556 94.6717 24.2561H129.167C130.487 24.2589 131.772 23.8359 132.832 23.0499C133.046 22.8941 133.25 22.7235 133.44 22.5396C134.044 21.9631 134.524 21.2699 134.852 20.5021C135.18 19.7343 135.349 18.9079 135.347 18.073V16.7715H146.165C147.151 16.7712 148.127 16.9652 149.038 17.3424C149.949 17.7196 150.777 18.2726 151.474 18.9698C152.171 19.667 152.724 20.4948 153.102 21.4058C153.479 22.3169 153.673 23.2933 153.672 24.2793Z" fill="#3F3D56"/>
<path d="M143.757 76.998H80.7495V124.937H143.757V76.998Z" fill="#FF9A02"/>
<path d="M47.5706 68.9197C53.1804 69.0401 57.643 73.1054 57.643 73.1054C57.643 73.1054 53.0102 76.9756 47.4004 76.8553C41.7905 76.7349 37.328 72.6696 37.328 72.6696C37.328 72.6696 41.9608 68.7994 47.5706 68.9197Z" fill="#FF9A02"/>
<path d="M19.3673 49.7705C24.4355 52.1784 30.2471 50.5456 30.2471 50.5456C30.2471 50.5456 27.8416 45.009 22.7733 42.6011C17.7051 40.1933 11.8935 41.8261 11.8935 41.8261C11.8935 41.8261 14.299 47.3627 19.3673 49.7705Z" fill="#FF9A02"/>
<path d="M19.8825 47.3785C25.4703 46.8679 30.3613 50.4061 30.3613 50.4061C30.3613 50.4061 26.1927 54.7723 20.6049 55.2829C15.017 55.7936 10.126 52.2554 10.126 52.2554C10.126 52.2554 14.2947 47.8892 19.8825 47.3785Z" fill="#3F3D56"/>
<path d="M40.3657 48.345C39.8301 53.9304 43.3465 58.8372 43.3465 58.8372C43.3465 58.8372 47.7312 54.6881 48.2668 49.1026C48.8024 43.5171 45.286 38.6104 45.286 38.6104C45.286 38.6104 40.9013 42.7595 40.3657 48.345Z" fill="#3F3D56"/>
<path d="M66.6816 82.6015C63.7507 87.3864 64.7591 93.3382 64.7591 93.3382C64.7591 93.3382 70.5193 91.5323 73.4501 86.7474C76.381 81.9626 75.3726 76.0107 75.3726 76.0107C75.3726 76.0107 69.6124 77.8167 66.6816 82.6015Z" fill="#3F3D56"/>
<path d="M58.1788 134.625L58.606 134.336C57.1004 132.151 56.2784 129.568 56.2443 126.915C56.2563 123.035 58.1625 119.445 60.006 115.974C60.3482 115.329 60.6892 114.687 61.0173 114.045C62.3945 111.428 63.492 108.673 64.2916 105.825C67.1511 95.1988 64.3358 82.6617 56.7608 72.2882C50.7516 64.059 41.7936 56.8631 29.3754 50.2891L29.1343 50.7446C41.4818 57.2811 50.3823 64.4276 56.3445 72.5922C63.8284 82.8407 66.6131 95.2143 63.7938 105.691C63.0034 108.504 61.919 111.225 60.5585 113.811C60.2314 114.45 59.8916 115.09 59.5507 115.732C57.6778 119.259 55.7412 122.905 55.7288 126.914C55.7629 129.67 56.6157 132.354 58.1788 134.625Z" fill="#3F3D56"/>
<path d="M4.89708 50.9668C7.6016 50.9668 9.79405 48.7743 9.79405 46.0698C9.79405 43.3653 7.6016 41.1729 4.89708 41.1729C2.19256 41.1729 0.000106812 43.3653 0.000106812 46.0698C0.000106812 48.7743 2.19256 50.9668 4.89708 50.9668Z" fill="#3F3D56"/>
<path d="M73.8314 125.559L43.0916 122.997V77.9119L73.8314 76.375V125.559Z" fill="#FF9A02"/>
<path d="M150.675 125.559L181.415 122.997V77.9119L150.675 76.375V125.559Z" fill="#FF9A02"/>
<path d="M58.3773 90.1197V89.5146H58.6178V87.6296C58.6187 87.4898 58.5812 87.3525 58.5093 87.2326C58.4375 87.1128 58.3341 87.0149 58.2104 86.9499C57.1466 86.3949 56.0034 86.3955 54.8125 86.9525C54.6811 87.0149 54.5701 87.1134 54.4924 87.2365C54.4147 87.3596 54.3736 87.5022 54.3738 87.6477V89.5146H54.6143V90.0624C53.7291 90.3105 52.9497 90.8421 52.3957 91.5758C51.8417 92.3094 51.5437 93.2045 51.5473 94.1238V98.2028L52.0054 98.3555L51.5473 98.6608V99.8866L52.0054 100.039L51.5473 100.345V101.571L52.0054 101.723L51.5473 102.029V111.365C51.5481 112.093 51.8378 112.791 52.3527 113.306C52.8676 113.821 53.5657 114.11 54.2939 114.111H58.3431C59.0696 114.11 59.7662 113.821 60.28 113.308C60.7937 112.794 61.0827 112.097 61.0835 111.371V102.029L60.6254 101.723L61.0835 101.571V100.345L60.6254 100.039L61.0835 99.8866V98.6609L60.6254 98.3555L61.0835 98.2028V93.9131C61.0805 93.0785 60.8185 92.2654 60.3338 91.586C59.8491 90.9065 59.1655 90.3942 58.3773 90.1197ZM55.0308 87.4194C56.0835 86.9277 57.0457 86.9236 57.9718 87.407C58.0117 87.4288 58.0448 87.461 58.0678 87.5002C58.0908 87.5394 58.1027 87.5841 58.1023 87.6296V88.6384H54.8893V87.6477C54.8889 87.6002 54.9019 87.5535 54.927 87.5131C54.952 87.4727 54.988 87.4402 55.0308 87.4194ZM60.568 97.8313L59.4626 98.1998L60.568 98.9367V99.5151L59.4626 99.8836L60.568 100.621V101.199L59.4626 101.567L60.568 102.305V111.371C60.5674 111.961 60.3327 112.526 59.9156 112.943C59.4985 113.36 58.933 113.595 58.3431 113.596H54.2939C53.7024 113.595 53.1353 113.36 52.717 112.942C52.2987 112.523 52.0634 111.956 52.0628 111.365V102.305L53.1682 101.567L52.0628 101.199V100.621L53.1682 99.8836L52.0628 99.5151V98.9367L53.1682 98.1997L52.0628 97.8313V94.1238C52.0595 93.2858 52.3417 92.4716 52.8629 91.8154C53.3841 91.1591 54.1132 90.6999 54.9302 90.5134L55.1298 90.4672V89.5146H57.8618V90.5018L58.0477 90.5558C58.7733 90.7695 59.4105 91.2116 59.8646 91.8165C60.3187 92.4214 60.5654 93.1568 60.568 93.9131V97.8313Z" fill="white"/>
<path d="M179.529 97.1786L178.232 96.9192L178.537 96.3081L177.942 96.1889L178.045 95.57L177.395 95.4615V94.8745L176.868 94.7238L177.368 94.0982H176.5L176.681 93.6452L176.039 93.5382L176.257 92.7743H175.562V92.0615H175.304C174.492 92.0615 174.039 93.026 173.891 93.4122C169.408 94.194 156.393 103.209 154.907 104.246C154.29 104.046 153.374 104.515 153.183 104.619L152.881 104.784L153.317 105.22L153.187 105.611L153.988 105.911L153.813 106.349L154.317 106.77L153.864 107.11L154.546 107.519L154.426 108.117L155.188 108.226V108.825L155.63 108.913L155.409 109.686H155.9V110.297H156.38L156.597 110.948L156.82 110.903C157.338 110.8 157.782 110.082 157.956 109.764C162.273 108.994 175.602 99.6163 176.899 98.6979C178.414 98.8794 178.97 98.4747 179.03 98.4271L179.276 98.2299L178.688 97.7397L179.529 97.1786ZM176.866 98.1742L176.765 98.1607L176.683 98.2195C176.535 98.324 161.918 108.68 157.751 109.275L157.618 109.294L157.557 109.415C157.397 109.741 157.182 110.036 156.92 110.287L156.751 109.782H156.416V109.171H156.092L156.279 108.518L155.703 108.402V107.779L155.039 107.684L155.123 107.264L154.786 107.062L155.148 106.791L154.43 106.193L154.662 105.613L153.834 105.303L153.907 105.082L153.747 104.921C154.134 104.76 154.602 104.641 154.804 104.761L154.947 104.847L155.084 104.751C155.23 104.648 169.748 94.4941 174.117 93.8985L174.28 93.8762L174.329 93.7189C174.404 93.4753 174.67 92.8597 175.046 92.6491V93.2898H175.574L175.384 93.9517L175.964 94.0484L175.738 94.6137H176.296L175.981 95.0067L176.879 95.2633V95.8982L177.452 95.9936L177.351 96.5967L177.774 96.6811L177.469 97.2922L178.208 97.4401L177.827 97.6937L178.375 98.1498C177.877 98.2508 177.366 98.259 176.866 98.1742Z" fill="white"/>
<path d="M112.253 146.844C116.381 146.844 119.727 143.498 119.727 139.37C119.727 135.242 116.381 131.896 112.253 131.896C108.125 131.896 104.779 135.242 104.779 139.37C104.779 143.498 108.125 146.844 112.253 146.844Z" fill="#FF9A02"/>
<path d="M116.959 138.632H112.991V134.664H111.515V138.632H107.547V140.108H111.515V144.076H112.991V140.108H116.959V138.632Z" fill="white"/>
<path d="M135.827 139.627L131.961 137.823V138.854H122.94V140.401H131.961V141.432L135.827 139.627Z" fill="white"/>
<path d="M88.6796 139.627L92.5456 137.823V138.854H101.566V140.401H92.5456V141.432L88.6796 139.627Z" fill="white"/>
<path d="M206.713 198.905H17.7931V199.421H206.713V198.905Z" fill="#3F3D56"/>
<path d="M136.996 41.1729H87.5106V41.6883H136.996V41.1729Z" fill="white"/>
<path d="M137.115 181.896H87.6303V182.411H137.115V181.896Z" fill="white"/>
<path d="M216.627 130.992L215.338 135.889C215.338 135.889 210.699 146.199 215.338 146.714C219.977 147.23 220.235 133.312 220.235 133.312L216.627 130.992Z" fill="#A0616A"/>
<path d="M224.617 95.6826L215.338 132.281C215.338 132.281 218.946 133.312 220.751 134.601L224.617 95.6826Z" fill="#FF9A02"/>
<path d="M253.741 123.519L256.318 163.468C256.318 163.468 262.504 179.19 262.246 194.138C262.246 194.138 259.926 200.066 261.731 201.097C263.535 202.128 264.566 202.901 263.535 203.675C262.504 204.448 261.731 206.252 262.504 206.767C263.277 207.283 263.535 208.056 263.277 208.056H255.545C255.545 208.056 257.091 204.19 254.772 203.159C252.452 202.128 253.741 199.551 253.741 199.551L236.472 149.035L222.813 195.427C222.813 195.427 225.132 196.973 223.328 197.747C221.524 198.52 220.751 196.973 221.524 198.52C222.297 200.066 221.266 200.84 221.266 201.097C221.266 201.355 213.534 200.324 213.534 200.324C213.534 200.324 217.4 196.973 215.596 196.2C213.792 195.427 213.019 194.654 213.534 194.138C214.049 193.623 216.111 188.726 216.111 188.726C216.111 188.726 217.142 170.169 217.4 169.396C217.658 168.623 217.4 165.014 217.4 163.21C217.4 161.406 217.142 154.189 217.916 152.385C218.689 150.581 219.462 128.416 223.586 125.838C227.709 123.261 253.741 123.519 253.741 123.519Z" fill="#2F2E41"/>
<path d="M221.008 199.809C221.008 199.809 226.163 210.376 222.555 211.665C218.946 212.953 214.307 211.922 213.276 213.469C212.245 215.015 200.905 216.819 200.647 212.953C200.39 209.087 213.019 201.871 213.019 201.871L214.664 199.222L221.008 199.809Z" fill="#2F2E41"/>
<path d="M262.761 207.54C262.761 207.54 267.916 218.107 264.308 219.396C260.7 220.685 256.06 219.654 255.029 221.2C253.998 222.747 242.658 224.551 242.4 220.685C242.143 216.819 254.772 209.602 254.772 209.602L256.417 206.953L262.761 207.54Z" fill="#2F2E41"/>
<path d="M238.921 74.9363C243.618 74.9363 247.426 71.1284 247.426 66.4311C247.426 61.7337 243.618 57.9258 238.921 57.9258C234.224 57.9258 230.416 61.7337 230.416 66.4311C230.416 71.1284 234.224 74.9363 238.921 74.9363Z" fill="#A0616A"/>
<path d="M244.72 70.9414L243.689 78.4157L235.957 84.3436L233.895 81.5086V71.7146L244.72 70.9414Z" fill="#A0616A"/>
<path d="M232.606 80.4769C232.606 80.4769 240.596 81.2501 244.72 78.415L252.968 127.127C252.968 127.127 223.843 129.447 222.555 127.9V112.694L227.709 87.9513L232.606 80.4769Z" fill="#3F3D56"/>
<path d="M244.01 76.0869L246.782 78.4159C246.782 78.4159 258.122 80.22 257.349 83.3128L254.256 119.911L255.287 132.283C255.287 132.283 246.524 129.963 239.823 132.283C233.122 134.602 238.446 82.4357 238.446 82.4357C238.446 82.4357 244.589 76.8508 244.01 76.0869Z" fill="#FF9A02"/>
<path d="M233.895 78.9062C233.895 78.9062 225.648 84.8575 224.617 88.7235C223.586 92.5896 220.235 133.312 220.235 133.312C220.235 133.312 221.782 132.539 222.555 133.827C223.328 135.116 235.184 80.9448 233.895 78.9062Z" fill="#FF9A02"/>
<path d="M256.576 132.796L254.728 138.825C254.728 138.825 254.256 150.065 248.071 148.518C241.885 146.972 249.875 133.827 249.875 133.827L251.679 130.992L256.576 132.796Z" fill="#A0616A"/>
<path d="M230.42 66.0592C230.42 66.0592 229.499 64.6781 229.853 63.1907C230.065 62.3463 230.148 61.4748 230.101 60.6056C230.101 60.6056 230.845 58.1975 231.588 56.8517C232.332 55.506 231.978 54.9394 234.315 54.5145C236.653 54.0895 235.696 51.044 241.858 54.3374C242.066 54.6277 242.355 54.8498 242.689 54.9759C243.023 55.1019 243.387 55.1262 243.735 55.0457C245.01 54.7978 245.47 56.5684 245.47 56.5684C245.47 56.5684 246.32 56.0727 246.639 56.7809C246.958 57.4892 249.23 56.3558 249.23 61.1366C249.23 65.9174 246.644 70.1879 246.644 70.1879C246.644 70.1879 246.834 62.146 242.62 61.3315C238.406 60.517 233.873 58.1443 232.775 61.1899C232.182 62.8992 231.392 64.5334 230.42 66.0592Z" fill="#2F2E41"/>
<path d="M246.737 67.9715C247.196 67.9715 247.568 67.4753 247.568 66.8632C247.568 66.2511 247.196 65.7549 246.737 65.7549C246.278 65.7549 245.905 66.2511 245.905 66.8632C245.905 67.4753 246.278 67.9715 246.737 67.9715Z" fill="#A0616A"/>
<path d="M255.287 81.508C255.287 81.508 259.411 80.477 260.7 87.4359C261.988 94.3947 263.535 114.24 263.535 114.24L257.349 135.117C257.349 135.117 251.163 131.766 249.875 132.282L254.742 114.158L250.648 95.6834C250.648 95.6834 254.256 81.508 255.287 81.508Z" fill="#FF9A02"/>
<path opacity="0.15" d="M249.291 96.0361L254.704 114.078L249.291 132.377L252.384 114.078L249.291 96.0361Z" fill="black"/>
<path d="M127.336 103.234L127.416 103.082C127.936 102.092 128.052 101.198 127.869 100.393C127.685 99.5838 127.192 98.8361 126.441 98.1549C124.934 96.7869 122.437 95.7308 119.567 95.0311L119.277 94.9605L119.397 94.6875C119.602 94.2215 119.729 93.6971 119.668 93.153C119.607 92.6133 119.36 92.0333 118.785 91.4534L127.336 103.234ZM127.336 103.234L127.45 103.363M127.336 103.234L127.45 103.363M127.45 103.363C127.853 103.821 128.199 104.274 128.434 104.706C128.67 105.14 128.779 105.529 128.744 105.868C128.709 106.193 128.535 106.51 128.119 106.801C127.695 107.098 127.026 107.363 126.026 107.562L125.869 107.593L125.832 107.749C125.153 110.617 124.449 113.093 122.596 114.869C120.751 116.637 117.718 117.75 112.281 117.75C106.19 117.75 103.114 116.354 101.344 114.197C100.453 113.111 99.8771 111.815 99.4226 110.363C99.0907 109.302 98.8271 108.171 98.5504 106.984C98.4468 106.54 98.3414 106.088 98.2299 105.628L98.2076 105.537L98.13 105.482C96.5979 104.413 95.6381 103.204 95.3457 101.992C95.0576 100.798 95.4054 99.5508 96.6014 98.3548L96.7279 98.2283L96.649 98.0677C96.3106 97.3794 96.2621 96.8174 96.4332 96.3674C96.6049 95.9162 97.0196 95.5195 97.7328 95.2105C99.1695 94.5879 101.687 94.379 105.262 94.7135L105.308 94.7178L105.352 94.7056C105.579 94.6429 105.816 94.585 106.06 94.5315L106.356 94.4667L106.236 94.1886C106.002 93.6443 105.601 93.0328 104.931 92.3584C104.461 91.8856 104.301 91.3701 104.315 90.8553C104.33 90.3307 104.528 89.7944 104.799 89.3022C104.995 88.9468 105.225 88.6228 105.44 88.3534C105.42 88.4711 105.404 88.5959 105.393 88.7261C105.325 89.5414 105.462 90.5948 106.316 91.454C107.188 92.3312 107.314 93.2185 107.154 93.989L107.083 94.3364L107.434 94.2872C108.887 94.0838 110.528 94.0088 112.236 94.06L112.594 94.0708L112.48 93.7311C112.208 92.9137 111.652 91.9578 110.619 90.8861C109.349 89.567 109.693 87.943 110.429 86.5674C110.758 85.9513 111.158 85.4041 111.499 84.9881C111.446 85.2394 111.4 85.5245 111.375 85.8317C111.285 86.9344 111.464 88.35 112.576 89.5057L112.577 89.5058C113.307 90.2634 113.651 91.0265 113.761 91.7476C113.872 92.4717 113.749 93.171 113.517 93.8009L113.402 94.1131L113.734 94.1366C115.345 94.2505 116.947 94.4713 118.529 94.7973L118.955 94.8852L118.816 94.4727C118.61 93.8618 118.187 93.1518 117.399 92.3584C116.929 91.8856 116.769 91.3701 116.783 90.8553C116.798 90.3307 116.996 89.7944 117.267 89.3022C117.463 88.9468 117.693 88.6227 117.908 88.3533M127.45 103.363L117.908 88.3533M117.908 88.3533C117.888 88.471 117.872 88.5957 117.861 88.7259C117.793 89.541 117.93 90.5941 118.785 91.4533L117.908 88.3533ZM126.858 102.62L126.851 102.635C126.127 104.179 124.23 105.48 121.681 106.395C119.119 107.315 115.844 107.864 112.281 107.864C108.719 107.864 105.444 107.315 102.881 106.395C100.333 105.48 98.4355 104.179 97.7113 102.635L97.7052 102.622L97.7006 102.608C97.678 102.541 97.6559 102.471 97.6348 102.404C97.6281 102.383 97.6215 102.362 97.615 102.342L97.588 102.257L97.6206 102.174C97.9691 101.29 98.6995 100.487 99.7008 99.7891C100.704 99.0896 101.995 98.4843 103.491 98.0013L103.741 98.419C103.417 98.7325 103.288 99.0607 103.356 99.3059C103.422 99.541 103.714 99.8499 104.605 100.021L104.605 100.021C104.803 100.059 105.213 100.009 105.493 99.7679C105.626 99.6536 105.732 99.4949 105.775 99.2714C105.819 99.0444 105.801 98.7342 105.654 98.3177C105.584 98.1191 105.478 98.0024 105.359 97.9343L104.803 97.6164L105.427 97.4736C107.479 97.004 109.806 96.734 112.281 96.734C112.489 96.734 112.694 96.7394 112.896 96.7447C112.966 96.7466 113.035 96.7484 113.104 96.75L113.182 97.2355C112.853 97.3521 112.542 97.5288 112.305 97.7307C112.063 97.9366 111.922 98.1467 111.886 98.323C111.855 98.4732 111.891 98.6337 112.103 98.7998C112.33 98.9785 112.751 99.1521 113.458 99.2639L126.858 102.62ZM126.858 102.62L126.863 102.605M126.858 102.62L126.863 102.605M126.863 102.605L126.947 102.342L126.974 102.257L126.941 102.174C126.47 100.98 125.301 99.9282 123.69 99.0794L122.859 98.6419L123.362 99.4345C123.42 99.5258 123.458 99.6285 123.473 99.7356C123.537 100.189 123.463 100.472 123.346 100.65C123.23 100.826 123.046 100.936 122.812 100.991C122.575 101.047 122.303 101.043 122.045 101.003C121.786 100.963 121.56 100.89 121.42 100.822L121.42 100.822C120.655 100.449 120.239 100.119 120.048 99.8563C119.955 99.7283 119.923 99.6272 119.919 99.5518C119.915 99.4791 119.935 99.4095 119.986 99.3381C120.095 99.1833 120.339 99.0318 120.697 98.9269C121.046 98.8247 121.466 98.7781 121.877 98.801L121.98 98.3177C119.967 97.5545 117.485 97.028 114.753 96.8271L113.914 96.7654L114.583 97.2752C114.685 97.3534 114.765 97.457 114.816 97.5759L114.816 97.5775M126.863 102.605L114.816 97.5775M114.816 97.5775C114.994 97.9902 115.013 98.2905 114.962 98.5055M114.816 97.5775L114.962 98.5055M114.962 98.5055C114.912 98.7174 114.787 98.8766 114.616 98.9971M114.962 98.5055L114.616 98.9971M114.616 98.9971C114.441 99.12 114.222 99.1993 114.004 99.2412M114.616 98.9971L114.004 99.2412M114.004 99.2412C113.784 99.2831 113.584 99.2838 113.458 99.2639L114.004 99.2412ZM121.208 98.5717C121.411 98.6406 121.609 98.7118 121.803 98.7852L121.891 98.5514L121.905 98.3018C121.682 98.2894 121.456 98.2949 121.236 98.3172C119.473 97.7231 117.389 97.301 115.116 97.1067C115.05 97.021 114.973 96.9438 114.886 96.8776L114.734 97.0764L114.716 97.3257C114.803 97.3322 114.891 97.3389 114.978 97.3461L121.208 98.5717Z" stroke="white" stroke-width="0.5"/>
<mask id="path-38-inside-1" fill="white">
<path d="M108.508 103.743C110.34 103.743 111.561 102.087 112.519 101.439C113.856 100.532 117.218 100.178 114.257 100.107C111.448 100.04 107.98 102.32 105.662 102.163C101.825 101.902 105.755 103.743 108.508 103.743Z"/>
</mask>
<path d="M112.519 101.439L112.799 101.853L112.799 101.852L112.519 101.439ZM114.257 100.107L114.269 99.6071L114.269 99.6071L114.257 100.107ZM105.662 102.163L105.629 102.662L105.629 102.662L105.662 102.163ZM108.508 104.243C109.582 104.243 110.452 103.756 111.143 103.233C111.488 102.971 111.803 102.69 112.078 102.446C112.361 102.194 112.592 101.993 112.799 101.853L112.238 101.025C111.967 101.208 111.686 101.457 111.414 101.698C111.133 101.948 110.848 102.202 110.539 102.435C109.922 102.903 109.265 103.243 108.508 103.243V104.243ZM112.799 101.852C113.078 101.664 113.488 101.489 113.938 101.329C114.394 101.168 114.808 101.05 115.157 100.934C115.312 100.883 115.476 100.825 115.595 100.763C115.633 100.742 115.768 100.673 115.856 100.535C115.913 100.446 115.971 100.295 115.925 100.116C115.883 99.9504 115.775 99.8547 115.713 99.8108C115.602 99.7313 115.476 99.7024 115.414 99.6895C115.333 99.6723 115.239 99.6598 115.136 99.6498C114.928 99.6297 114.643 99.6161 114.269 99.6071L114.245 100.607C114.612 100.616 114.869 100.629 115.039 100.645C115.125 100.653 115.178 100.662 115.208 100.668C115.257 100.678 115.203 100.675 115.132 100.625C115.091 100.595 114.995 100.514 114.957 100.365C114.914 100.201 114.969 100.067 115.014 99.995C115.081 99.8912 115.165 99.8588 115.127 99.8786C115.094 99.8962 115.007 99.9306 114.843 99.9848C114.554 100.08 114.062 100.225 113.604 100.387C113.14 100.551 112.628 100.76 112.238 101.025L112.799 101.852ZM114.269 99.6071C112.753 99.5707 111.091 100.164 109.606 100.698C108.847 100.971 108.128 101.232 107.456 101.416C106.781 101.601 106.193 101.698 105.696 101.664L105.629 102.662C106.291 102.706 107.005 102.577 107.72 102.38C108.438 102.184 109.197 101.908 109.945 101.639C111.475 101.089 112.952 100.576 114.245 100.607L114.269 99.6071ZM105.696 101.664C105.204 101.631 104.815 101.629 104.52 101.658C104.374 101.673 104.236 101.697 104.114 101.735C104.001 101.77 103.854 101.833 103.737 101.957C103.597 102.106 103.534 102.31 103.579 102.519C103.616 102.691 103.716 102.817 103.79 102.894C103.941 103.052 104.163 103.188 104.389 103.302C105.303 103.763 107.051 104.243 108.508 104.243V103.243C107.212 103.243 105.619 102.803 104.839 102.409C104.641 102.309 104.543 102.235 104.511 102.202C104.494 102.184 104.537 102.22 104.556 102.309C104.583 102.434 104.541 102.562 104.465 102.643C104.412 102.699 104.372 102.702 104.414 102.689C104.447 102.678 104.512 102.664 104.62 102.653C104.834 102.632 105.161 102.63 105.629 102.662L105.696 101.664Z" fill="white" mask="url(#path-38-inside-1)"/>
<path d="M112.514 106.882L112.514 106.882C111.4 106.667 111.01 106.275 110.921 105.949C110.83 105.611 111.014 105.18 111.427 104.787C111.83 104.402 112.385 104.123 112.869 104.079C113.108 104.058 113.316 104.094 113.482 104.187C113.644 104.278 113.786 104.436 113.878 104.697L113.879 104.697C114.063 105.219 114.087 105.614 114.031 105.907C113.974 106.198 113.836 106.405 113.662 106.555C113.3 106.866 112.774 106.932 112.514 106.882Z" stroke="white" stroke-width="0.5"/>
<mask id="path-41-inside-2" fill="white">
<path d="M102.393 101.668C101.775 100.795 100.879 99.6886 100.507 100.265C100 101.053 99.8405 102.639 100.209 102.709C103.097 103.263 102.894 102.375 102.393 101.668Z"/>
</mask>
<path d="M100.507 100.265L100.087 99.9941L100.087 99.9943L100.507 100.265ZM100.209 102.709L100.303 102.218L100.303 102.218L100.209 102.709ZM102.801 101.379C102.491 100.941 102.085 100.406 101.693 100.052C101.505 99.8821 101.263 99.7003 100.993 99.6331C100.846 99.5966 100.671 99.5887 100.493 99.6563C100.312 99.7246 100.179 99.851 100.087 99.9941L100.928 100.536C100.928 100.535 100.905 100.57 100.847 100.591C100.791 100.613 100.751 100.603 100.751 100.603C100.751 100.603 100.753 100.604 100.757 100.605C100.761 100.607 100.767 100.609 100.774 100.613C100.79 100.62 100.81 100.631 100.835 100.647C100.887 100.68 100.95 100.728 101.023 100.794C101.326 101.068 101.677 101.522 101.985 101.957L102.801 101.379ZM100.087 99.9943C99.7775 100.475 99.5954 101.152 99.5331 101.7C99.5016 101.976 99.4961 102.257 99.5358 102.492C99.5553 102.607 99.5907 102.743 99.6624 102.867C99.7357 102.994 99.8777 103.155 100.115 103.201L100.303 102.218C100.448 102.246 100.514 102.343 100.528 102.366C100.54 102.387 100.531 102.381 100.522 102.325C100.504 102.218 100.501 102.04 100.527 101.813C100.579 101.354 100.73 100.843 100.928 100.535L100.087 99.9943ZM100.115 103.201C100.854 103.342 101.426 103.398 101.861 103.379C102.277 103.361 102.662 103.271 102.921 103.02C103.218 102.73 103.224 102.359 103.154 102.083C103.087 101.821 102.939 101.573 102.801 101.379L101.985 101.957C102.098 102.116 102.163 102.245 102.185 102.33C102.203 102.402 102.174 102.351 102.223 102.303C102.234 102.293 102.16 102.365 101.817 102.38C101.493 102.394 101.007 102.353 100.303 102.218L100.115 103.201Z" fill="white" mask="url(#path-41-inside-2)"/>
<path d="M116.092 101.023L116.092 101.023C115.978 101.183 115.943 101.307 115.942 101.399C115.941 101.488 115.972 101.573 116.042 101.658C116.193 101.841 116.508 102.002 116.924 102.101C117.33 102.198 117.791 102.225 118.186 102.176C118.598 102.126 118.874 102.004 118.986 101.864C119.057 101.777 119.09 101.639 119.062 101.447C119.033 101.258 118.947 101.045 118.823 100.85C118.698 100.655 118.545 100.495 118.4 100.402L116.092 101.023ZM116.092 101.023C116.184 100.893 116.278 100.817 116.378 100.766C116.482 100.713 116.604 100.68 116.766 100.65C116.826 100.64 116.891 100.629 116.96 100.618C117.258 100.571 117.639 100.51 118.088 100.328L116.092 101.023Z" stroke="white" stroke-width="0.5"/>
<path d="M117.02 103.953L117.02 103.953C116.905 103.86 116.743 103.835 116.543 103.897C116.342 103.959 116.129 104.103 115.963 104.3C115.798 104.497 115.693 104.729 115.683 104.956C115.672 105.175 115.746 105.411 115.978 105.635C116.275 105.923 116.497 106.049 116.659 106.097C116.812 106.143 116.929 106.124 117.037 106.08C117.126 106.044 117.197 105.998 117.283 105.943C117.321 105.918 117.362 105.891 117.409 105.863C117.54 105.784 117.73 105.684 117.96 105.726M117.02 103.953L117.96 105.726M117.02 103.953C117.308 104.184 117.545 104.313 117.758 104.35C117.992 104.391 118.161 104.315 118.288 104.231C118.325 104.207 118.367 104.175 118.399 104.151C118.413 104.141 118.425 104.132 118.434 104.125C118.474 104.096 118.502 104.079 118.528 104.069C118.561 104.055 118.619 104.038 118.755 104.098L117.02 103.953ZM117.96 105.726C118.166 105.764 118.431 105.725 118.693 105.617C118.955 105.509 119.185 105.345 119.326 105.165C119.467 104.986 119.502 104.82 119.452 104.673C119.397 104.515 119.218 104.302 118.755 104.098L117.96 105.726Z" stroke="white" stroke-width="0.5"/>
<mask id="path-45-inside-3" fill="white">
<path d="M106.399 104.248C106.009 103.863 105.485 104.327 105.189 104.892C104.896 104.749 104.658 104.715 104.658 104.715C104.434 104.077 103.768 103.64 103.768 103.64C103.768 103.64 103.829 104.303 103.917 104.627C103.181 104.365 103.158 103.051 103.158 103.051C103.158 103.051 102.665 103.346 102.71 103.848C101.9 103.194 101.21 103.5 101.21 103.5C101.21 103.5 102.238 104.078 102.379 104.467C101.802 104.512 101.466 104.712 101.27 105.176C101.27 105.18 102.41 104.633 103.253 105.028C102.92 105.3 103.086 105.979 103.086 105.979C103.871 105.147 104.497 105.236 104.999 105.385C104.938 105.64 104.942 105.872 105.05 106.013C105.92 107.157 108.95 106.9 109.763 106.054C110.749 105.031 108.011 105.834 106.399 104.248Z"/>
</mask>
<path d="M105.189 104.892L104.969 105.341L105.406 105.556L105.632 105.124L105.189 104.892ZM104.658 104.715L104.186 104.881L104.287 105.168L104.588 105.21L104.658 104.715ZM103.768 103.64L104.043 103.222L103.176 102.652L103.27 103.685L103.768 103.64ZM103.917 104.627L103.749 105.098L104.649 105.418L104.399 104.496L103.917 104.627ZM103.158 103.051L103.658 103.042L103.643 102.178L102.902 102.622L103.158 103.051ZM102.71 103.848L102.396 104.237L103.312 104.976L103.208 103.803L102.71 103.848ZM101.21 103.5L101.008 103.042L100.096 103.446L100.965 103.935L101.21 103.5ZM102.379 104.467L102.418 104.966L103.074 104.915L102.849 104.297L102.379 104.467ZM101.27 105.176L100.809 104.981L100.755 105.109L100.775 105.246L101.27 105.176ZM103.253 105.028L103.569 105.415L104.185 104.912L103.465 104.575L103.253 105.028ZM103.086 105.979L102.6 106.098L102.818 106.992L103.45 106.322L103.086 105.979ZM104.999 105.385L105.485 105.501L105.595 105.041L105.141 104.906L104.999 105.385ZM105.05 106.013L105.448 105.711L105.447 105.71L105.05 106.013ZM109.763 106.054L109.403 105.707L109.403 105.707L109.763 106.054ZM106.75 103.891C106.57 103.714 106.344 103.611 106.095 103.607C105.859 103.603 105.652 103.689 105.489 103.793C105.173 103.995 104.917 104.335 104.746 104.661L105.632 105.124C105.758 104.885 105.911 104.71 106.028 104.635C106.083 104.6 106.098 104.607 106.079 104.607C106.047 104.606 106.033 104.589 106.048 104.604L106.75 103.891ZM105.41 104.444C105.229 104.355 105.066 104.3 104.946 104.268C104.885 104.251 104.835 104.24 104.798 104.232C104.779 104.229 104.763 104.226 104.752 104.224C104.746 104.223 104.741 104.222 104.737 104.221C104.735 104.221 104.733 104.221 104.731 104.22C104.73 104.22 104.73 104.22 104.729 104.22C104.729 104.22 104.728 104.22 104.728 104.22C104.728 104.22 104.728 104.22 104.728 104.22C104.727 104.22 104.727 104.22 104.727 104.22C104.727 104.22 104.727 104.22 104.658 104.715C104.588 105.21 104.588 105.21 104.588 105.21C104.588 105.21 104.588 105.21 104.588 105.21C104.588 105.21 104.588 105.21 104.588 105.21C104.587 105.21 104.587 105.21 104.587 105.21C104.586 105.21 104.586 105.21 104.586 105.21C104.585 105.21 104.585 105.21 104.584 105.21C104.584 105.21 104.584 105.21 104.586 105.21C104.588 105.21 104.593 105.211 104.602 105.213C104.618 105.216 104.646 105.222 104.682 105.232C104.754 105.252 104.856 105.286 104.969 105.341L105.41 104.444ZM105.13 104.55C104.981 104.126 104.698 103.794 104.478 103.58C104.364 103.469 104.259 103.382 104.182 103.322C104.143 103.292 104.11 103.268 104.086 103.252C104.074 103.243 104.064 103.236 104.057 103.231C104.053 103.229 104.05 103.227 104.048 103.225C104.047 103.224 104.046 103.224 104.045 103.223C104.044 103.223 104.044 103.223 104.044 103.222C104.043 103.222 104.043 103.222 104.043 103.222C104.043 103.222 104.043 103.222 104.043 103.222C104.043 103.222 104.043 103.222 103.768 103.64C103.494 104.057 103.493 104.057 103.493 104.057C103.493 104.057 103.493 104.057 103.493 104.057C103.493 104.057 103.493 104.057 103.493 104.057C103.493 104.057 103.492 104.057 103.492 104.057C103.492 104.056 103.492 104.056 103.492 104.056C103.492 104.056 103.493 104.057 103.494 104.058C103.497 104.06 103.501 104.063 103.508 104.068C103.522 104.077 103.543 104.093 103.57 104.113C103.624 104.155 103.699 104.218 103.78 104.296C103.949 104.461 104.111 104.666 104.186 104.881L105.13 104.55ZM103.768 103.64C103.27 103.685 103.27 103.685 103.27 103.685C103.27 103.685 103.27 103.685 103.27 103.685C103.27 103.685 103.27 103.685 103.27 103.685C103.27 103.685 103.27 103.686 103.27 103.686C103.27 103.686 103.27 103.687 103.27 103.688C103.271 103.689 103.271 103.691 103.271 103.694C103.272 103.699 103.272 103.707 103.273 103.717C103.275 103.737 103.278 103.765 103.282 103.8C103.289 103.87 103.3 103.967 103.313 104.075C103.339 104.28 103.38 104.558 103.434 104.758L104.399 104.496C104.365 104.371 104.332 104.156 104.305 103.949C104.293 103.85 104.283 103.761 104.276 103.696C104.273 103.664 104.27 103.638 104.269 103.62C104.268 103.611 104.267 103.605 104.267 103.6C104.266 103.598 104.266 103.596 104.266 103.595C104.266 103.595 104.266 103.594 104.266 103.594C104.266 103.594 104.266 103.594 104.266 103.594C104.266 103.594 104.266 103.594 104.266 103.594C104.266 103.594 104.266 103.594 104.266 103.594C104.266 103.594 104.266 103.594 103.768 103.64ZM104.084 104.156C103.968 104.114 103.836 103.95 103.744 103.61C103.704 103.462 103.682 103.317 103.671 103.207C103.665 103.153 103.662 103.109 103.66 103.08C103.659 103.065 103.659 103.054 103.658 103.048C103.658 103.045 103.658 103.042 103.658 103.041C103.658 103.041 103.658 103.041 103.658 103.041C103.658 103.041 103.658 103.041 103.658 103.041C103.658 103.041 103.658 103.042 103.658 103.042C103.658 103.042 103.658 103.042 103.658 103.042C103.658 103.042 103.658 103.042 103.158 103.051C102.658 103.059 102.658 103.06 102.658 103.06C102.658 103.06 102.658 103.06 102.658 103.06C102.658 103.06 102.658 103.06 102.658 103.061C102.658 103.061 102.658 103.062 102.658 103.063C102.659 103.064 102.659 103.066 102.659 103.068C102.659 103.072 102.659 103.077 102.659 103.083C102.66 103.096 102.66 103.114 102.662 103.136C102.664 103.18 102.668 103.24 102.676 103.313C102.692 103.458 102.721 103.658 102.779 103.871C102.882 104.254 103.129 104.878 103.749 105.098L104.084 104.156ZM103.158 103.051C102.902 102.622 102.902 102.622 102.901 102.622C102.901 102.622 102.901 102.622 102.901 102.622C102.901 102.622 102.901 102.622 102.9 102.623C102.9 102.623 102.899 102.623 102.899 102.624C102.898 102.624 102.896 102.625 102.895 102.626C102.892 102.628 102.889 102.63 102.885 102.632C102.878 102.637 102.868 102.643 102.857 102.65C102.836 102.665 102.807 102.685 102.775 102.71C102.71 102.761 102.624 102.836 102.539 102.934C102.371 103.129 102.173 103.457 102.212 103.892L103.208 103.803C103.202 103.736 103.228 103.667 103.296 103.588C103.328 103.55 103.363 103.52 103.389 103.499C103.402 103.489 103.412 103.482 103.417 103.479C103.42 103.477 103.421 103.476 103.421 103.477C103.42 103.477 103.42 103.477 103.419 103.477C103.419 103.478 103.418 103.478 103.417 103.478C103.417 103.479 103.417 103.479 103.416 103.479C103.416 103.479 103.416 103.479 103.416 103.479C103.416 103.48 103.415 103.48 103.415 103.48C103.415 103.48 103.415 103.48 103.158 103.051ZM103.024 103.458C102.528 103.058 102.044 102.936 101.666 102.929C101.481 102.925 101.327 102.949 101.215 102.976C101.159 102.989 101.113 103.003 101.078 103.015C101.06 103.021 101.046 103.027 101.034 103.031C101.028 103.034 101.023 103.036 101.019 103.038C101.016 103.039 101.014 103.039 101.013 103.04C101.012 103.041 101.011 103.041 101.01 103.041C101.01 103.042 101.009 103.042 101.009 103.042C101.009 103.042 101.008 103.042 101.008 103.042C101.008 103.042 101.008 103.042 101.21 103.5C101.413 103.957 101.412 103.957 101.412 103.957C101.412 103.957 101.412 103.957 101.412 103.957C101.411 103.957 101.411 103.958 101.411 103.958C101.41 103.958 101.409 103.958 101.409 103.958C101.408 103.959 101.407 103.959 101.406 103.96C101.404 103.961 101.403 103.961 101.402 103.961C101.401 103.962 101.402 103.961 101.405 103.96C101.411 103.958 101.425 103.953 101.446 103.948C101.489 103.938 101.558 103.927 101.646 103.928C101.815 103.932 102.082 103.983 102.396 104.237L103.024 103.458ZM101.21 103.5C100.965 103.935 100.965 103.935 100.965 103.935C100.965 103.935 100.965 103.935 100.965 103.935C100.965 103.935 100.965 103.935 100.965 103.935C100.965 103.935 100.965 103.935 100.965 103.935C100.965 103.935 100.966 103.936 100.966 103.936C100.968 103.937 100.97 103.938 100.973 103.94C100.98 103.944 100.99 103.949 101.002 103.957C101.028 103.972 101.066 103.994 101.112 104.022C101.204 104.079 101.328 104.158 101.454 104.246C101.582 104.336 101.702 104.43 101.795 104.516C101.902 104.617 101.917 104.658 101.909 104.638L102.849 104.297C102.771 104.082 102.604 103.905 102.479 103.787C102.339 103.656 102.176 103.532 102.029 103.428C101.881 103.324 101.738 103.233 101.634 103.169C101.581 103.137 101.538 103.111 101.507 103.093C101.491 103.084 101.479 103.077 101.47 103.072C101.466 103.07 101.462 103.068 101.46 103.066C101.459 103.066 101.458 103.065 101.457 103.065C101.456 103.064 101.456 103.064 101.456 103.064C101.456 103.064 101.456 103.064 101.456 103.064C101.456 103.064 101.455 103.064 101.455 103.064C101.455 103.064 101.455 103.064 101.21 103.5ZM102.341 103.969C102.007 103.995 101.69 104.069 101.416 104.241C101.133 104.419 100.939 104.673 100.809 104.981L101.73 105.37C101.796 105.214 101.869 105.137 101.947 105.088C102.035 105.033 102.175 104.985 102.418 104.966L102.341 103.969ZM100.775 105.246C100.82 105.395 100.997 105.595 101.099 105.646C101.157 105.663 101.252 105.675 101.286 105.676C101.341 105.674 101.383 105.663 101.39 105.661C101.416 105.655 101.436 105.647 101.44 105.646C101.452 105.642 101.461 105.638 101.463 105.637C101.47 105.634 101.477 105.631 101.48 105.63C101.489 105.626 101.5 105.621 101.514 105.615C101.542 105.604 101.583 105.587 101.635 105.568C101.74 105.529 101.886 105.481 102.054 105.444C102.407 105.365 102.769 105.354 103.041 105.481L103.465 104.575C102.893 104.308 102.265 104.372 101.837 104.467C101.614 104.517 101.423 104.58 101.288 104.63C101.219 104.655 101.165 104.677 101.127 104.693C101.108 104.701 101.094 104.708 101.085 104.711C101.08 104.713 101.081 104.713 101.083 104.712C101.083 104.712 101.085 104.711 101.088 104.71C101.09 104.709 101.095 104.707 101.101 104.705C101.104 104.704 101.124 104.697 101.149 104.691C101.156 104.689 101.198 104.678 101.253 104.676C101.287 104.676 101.382 104.689 101.441 104.706C101.542 104.756 101.719 104.956 101.765 105.105L100.775 105.246ZM102.936 104.641C102.584 104.929 102.545 105.375 102.545 105.605C102.545 105.739 102.558 105.859 102.571 105.944C102.577 105.987 102.584 106.023 102.589 106.049C102.592 106.062 102.594 106.073 102.596 106.081C102.597 106.085 102.598 106.089 102.599 106.091C102.599 106.093 102.599 106.094 102.599 106.095C102.6 106.096 102.6 106.096 102.6 106.096C102.6 106.097 102.6 106.097 102.6 106.097C102.6 106.097 102.6 106.097 102.6 106.097C102.6 106.097 102.6 106.098 103.086 105.979C103.572 105.861 103.572 105.861 103.572 105.861C103.572 105.861 103.572 105.861 103.572 105.862C103.572 105.862 103.572 105.862 103.572 105.862C103.572 105.862 103.572 105.862 103.572 105.863C103.572 105.863 103.572 105.863 103.572 105.863C103.572 105.864 103.572 105.863 103.572 105.862C103.571 105.86 103.571 105.856 103.569 105.85C103.567 105.838 103.563 105.819 103.559 105.794C103.552 105.743 103.545 105.676 103.545 105.606C103.545 105.534 103.553 105.477 103.565 105.438C103.576 105.4 103.584 105.403 103.569 105.415L102.936 104.641ZM103.45 106.322C103.789 105.963 104.054 105.843 104.246 105.805C104.444 105.766 104.632 105.798 104.856 105.865L105.141 104.906C104.864 104.824 104.488 104.737 104.051 104.824C103.609 104.912 103.168 105.164 102.722 105.636L103.45 106.322ZM104.513 105.27C104.446 105.55 104.399 105.984 104.652 106.317L105.447 105.71C105.472 105.743 105.463 105.756 105.46 105.71C105.457 105.666 105.463 105.596 105.485 105.501L104.513 105.27ZM104.652 106.316C104.958 106.718 105.422 106.961 105.898 107.101C106.379 107.242 106.919 107.294 107.442 107.279C107.966 107.265 108.492 107.183 108.951 107.044C109.398 106.908 109.834 106.702 110.124 106.401L109.403 105.707C109.286 105.829 109.038 105.972 108.661 106.087C108.295 106.198 107.858 106.267 107.414 106.28C106.969 106.292 106.537 106.247 106.18 106.141C105.817 106.034 105.577 105.88 105.448 105.711L104.652 106.316ZM110.123 106.401C110.255 106.265 110.411 106.077 110.458 105.849C110.485 105.715 110.476 105.565 110.405 105.422C110.339 105.287 110.238 105.2 110.153 105.144C109.998 105.044 109.808 104.994 109.664 104.963C109.507 104.928 109.319 104.899 109.136 104.869C108.364 104.742 107.43 104.56 106.75 103.891L106.048 104.604C106.98 105.521 108.221 105.731 108.974 105.855C109.172 105.888 109.326 105.912 109.45 105.94C109.587 105.97 109.618 105.99 109.607 105.982C109.594 105.974 109.545 105.939 109.509 105.865C109.468 105.783 109.467 105.702 109.478 105.647C109.493 105.577 109.518 105.588 109.403 105.707L110.123 106.401Z" fill="white" mask="url(#path-45-inside-3)"/>
<path d="M108.539 99.9398C108.282 100.458 108.28 100.849 108.578 101.256C108.582 101.257 108.698 99.9988 109.469 99.4774C109.532 99.9024 110.2 100.109 110.2 100.109C109.666 98.2183 111.224 98.1197 111.217 97.4414C110.391 97.5111 109.922 98.1118 109.922 98.1118C109.259 97.9763 108.541 98.3226 108.541 98.3226C108.541 98.3226 109.142 98.611 109.465 98.7022C108.863 99.1992 107.723 98.5436 107.723 98.5436C107.723 98.5436 107.723 99.1193 108.176 99.3375C107.2 99.6973 107.108 100.445 107.108 100.445C107.108 100.445 108.131 99.8611 108.539 99.9398Z" fill="white"/>
<mask id="path-48-inside-4" fill="white">
<path d="M123.018 102.522C123.253 102.076 122.911 101.613 122.911 101.613C122.911 101.613 122.384 102.819 121.605 102.777C121.81 102.512 122.122 101.923 122.122 101.923C122.122 101.923 121.339 102.072 120.887 102.574C120.887 102.574 120.152 102.371 119.447 102.806C119.845 103.356 121.156 102.507 121.852 104.345C121.852 104.345 122.265 103.782 122.063 103.403C122.993 103.363 123.835 104.304 123.838 104.301C123.835 103.797 123.601 103.484 123.085 103.221C123.366 102.915 124.537 102.777 124.537 102.777C124.537 102.777 124.018 102.23 123.018 102.522Z"/>
</mask>
<path d="M122.911 101.613L123.313 101.316L122.799 100.621L122.452 101.413L122.911 101.613ZM121.605 102.777L121.21 102.471L120.626 103.226L121.579 103.277L121.605 102.777ZM122.122 101.923L122.564 102.156L123.05 101.237L122.028 101.431L122.122 101.923ZM120.887 102.574L120.753 103.056L121.051 103.139L121.258 102.909L120.887 102.574ZM119.447 102.806L119.185 102.381L118.727 102.663L119.042 103.099L119.447 102.806ZM121.852 104.345L121.384 104.522L121.71 105.382L122.254 104.641L121.852 104.345ZM122.063 103.403L122.041 102.903L121.248 102.938L121.622 103.638L122.063 103.403ZM123.838 104.301L124.222 104.621L124.34 104.481L124.338 104.298L123.838 104.301ZM123.085 103.221L122.717 102.882L122.271 103.367L122.858 103.666L123.085 103.221ZM124.537 102.777L124.596 103.273L125.586 103.156L124.9 102.432L124.537 102.777ZM123.461 102.755C123.664 102.368 123.608 101.988 123.528 101.745C123.487 101.62 123.436 101.518 123.396 101.447C123.376 101.411 123.357 101.381 123.343 101.359C123.335 101.348 123.329 101.339 123.324 101.332C123.322 101.328 123.319 101.325 123.317 101.322C123.316 101.321 123.316 101.32 123.315 101.319C123.314 101.318 123.314 101.318 123.314 101.317C123.314 101.317 123.313 101.317 123.313 101.317C123.313 101.317 123.313 101.316 123.313 101.316C123.313 101.316 123.313 101.316 122.911 101.613C122.509 101.911 122.508 101.91 122.508 101.91C122.508 101.91 122.508 101.91 122.508 101.91C122.508 101.91 122.508 101.91 122.508 101.909C122.507 101.909 122.507 101.909 122.507 101.908C122.507 101.908 122.506 101.907 122.506 101.907C122.505 101.906 122.505 101.905 122.505 101.905C122.505 101.905 122.506 101.906 122.507 101.909C122.511 101.914 122.517 101.924 122.525 101.938C122.542 101.968 122.562 102.009 122.577 102.056C122.61 102.155 122.607 102.23 122.576 102.289L123.461 102.755ZM122.911 101.613C122.452 101.413 122.453 101.413 122.453 101.413C122.453 101.413 122.453 101.413 122.453 101.413C122.453 101.413 122.453 101.412 122.453 101.412C122.453 101.412 122.453 101.412 122.453 101.412C122.453 101.412 122.453 101.412 122.453 101.413C122.452 101.413 122.451 101.415 122.45 101.418C122.447 101.424 122.443 101.434 122.436 101.447C122.424 101.473 122.404 101.513 122.378 101.561C122.324 101.658 122.248 101.784 122.154 101.905C121.939 102.183 121.754 102.284 121.632 102.278L121.579 103.277C122.235 103.311 122.703 102.83 122.946 102.517C123.081 102.342 123.185 102.169 123.255 102.041C123.29 101.977 123.317 101.922 123.337 101.883C123.346 101.863 123.354 101.847 123.359 101.835C123.362 101.829 123.364 101.825 123.366 101.821C123.366 101.819 123.367 101.818 123.368 101.816C123.368 101.816 123.368 101.815 123.368 101.815C123.368 101.814 123.369 101.814 123.369 101.814C123.369 101.814 123.369 101.814 123.369 101.814C123.369 101.814 123.369 101.813 122.911 101.613ZM122.001 103.083C122.127 102.92 122.271 102.679 122.374 102.499C122.428 102.405 122.475 102.32 122.509 102.258C122.526 102.228 122.539 102.202 122.549 102.185C122.553 102.176 122.557 102.169 122.56 102.164C122.561 102.162 122.562 102.16 122.563 102.159C122.563 102.158 122.563 102.158 122.563 102.157C122.564 102.157 122.564 102.157 122.564 102.157C122.564 102.157 122.564 102.157 122.564 102.157C122.564 102.157 122.564 102.156 122.564 102.156C122.564 102.156 122.564 102.156 122.122 101.923C121.68 101.689 121.68 101.689 121.68 101.689C121.68 101.689 121.68 101.689 121.68 101.689C121.68 101.689 121.68 101.689 121.68 101.689C121.68 101.689 121.68 101.689 121.68 101.689C121.68 101.689 121.68 101.69 121.679 101.69C121.679 101.691 121.678 101.692 121.677 101.694C121.675 101.698 121.672 101.704 121.667 101.712C121.659 101.728 121.647 101.751 121.631 101.779C121.6 101.836 121.556 101.915 121.507 102.002C121.403 102.183 121.289 102.369 121.21 102.471L122.001 103.083ZM122.122 101.923C122.028 101.431 122.028 101.432 122.028 101.432C122.028 101.432 122.028 101.432 122.028 101.432C122.028 101.432 122.027 101.432 122.027 101.432C122.027 101.432 122.026 101.432 122.026 101.432C122.025 101.432 122.024 101.432 122.022 101.433C122.019 101.433 122.016 101.434 122.011 101.435C122.003 101.437 121.991 101.439 121.977 101.442C121.948 101.449 121.909 101.458 121.862 101.471C121.767 101.497 121.636 101.537 121.489 101.595C121.204 101.708 120.814 101.907 120.515 102.24L121.258 102.909C121.411 102.739 121.639 102.612 121.858 102.525C121.963 102.483 122.057 102.454 122.123 102.436C122.156 102.427 122.182 102.421 122.198 102.418C122.206 102.416 122.212 102.415 122.215 102.414C122.216 102.414 122.217 102.414 122.217 102.414C122.217 102.414 122.217 102.414 122.217 102.414C122.217 102.414 122.216 102.414 122.216 102.414C122.216 102.414 122.216 102.414 122.216 102.414C122.216 102.414 122.216 102.414 122.216 102.414C122.215 102.414 122.215 102.414 122.122 101.923ZM120.887 102.574C121.02 102.092 121.02 102.092 121.02 102.092C121.02 102.092 121.019 102.092 121.019 102.092C121.019 102.092 121.019 102.092 121.018 102.092C121.018 102.092 121.017 102.092 121.016 102.092C121.015 102.091 121.013 102.091 121.012 102.09C121.008 102.089 121.004 102.088 120.999 102.087C120.989 102.085 120.976 102.081 120.961 102.078C120.93 102.071 120.888 102.063 120.837 102.055C120.734 102.039 120.593 102.025 120.425 102.027C120.09 102.031 119.635 102.103 119.185 102.381L119.71 103.232C119.965 103.074 120.229 103.03 120.438 103.027C120.541 103.026 120.627 103.035 120.685 103.044C120.713 103.048 120.734 103.052 120.746 103.055C120.752 103.056 120.756 103.057 120.757 103.057C120.758 103.057 120.758 103.057 120.757 103.057C120.757 103.057 120.756 103.057 120.756 103.057C120.755 103.057 120.755 103.057 120.754 103.057C120.754 103.057 120.754 103.056 120.754 103.056C120.754 103.056 120.753 103.056 120.753 103.056C120.753 103.056 120.753 103.056 120.887 102.574ZM119.042 103.099C119.268 103.411 119.605 103.485 119.824 103.515C119.936 103.531 120.06 103.54 120.156 103.548C120.261 103.557 120.355 103.567 120.446 103.584C120.623 103.617 120.777 103.674 120.92 103.792C121.065 103.912 121.233 104.123 121.384 104.522L122.319 104.168C122.122 103.647 121.866 103.276 121.557 103.021C121.246 102.764 120.917 102.654 120.629 102.601C120.488 102.575 120.355 102.562 120.243 102.552C120.122 102.541 120.04 102.536 119.962 102.525C119.801 102.502 119.826 102.476 119.852 102.513L119.042 103.099ZM121.852 104.345C122.254 104.641 122.254 104.641 122.255 104.641C122.255 104.641 122.255 104.64 122.255 104.64C122.255 104.64 122.255 104.64 122.255 104.64C122.255 104.639 122.256 104.639 122.256 104.639C122.257 104.638 122.257 104.637 122.258 104.636C122.26 104.633 122.262 104.63 122.264 104.627C122.269 104.62 122.276 104.611 122.283 104.6C122.298 104.578 122.318 104.547 122.34 104.51C122.385 104.437 122.443 104.332 122.495 104.208C122.583 103.995 122.718 103.569 122.504 103.167L121.622 103.638C121.613 103.622 121.621 103.622 121.618 103.661C121.614 103.702 121.599 103.758 121.571 103.824C121.545 103.888 121.512 103.947 121.486 103.991C121.473 104.013 121.462 104.029 121.455 104.039C121.451 104.044 121.449 104.048 121.448 104.049C121.447 104.05 121.447 104.051 121.447 104.05C121.447 104.05 121.447 104.05 121.448 104.05C121.448 104.05 121.448 104.049 121.448 104.049C121.448 104.049 121.448 104.049 121.448 104.049C121.448 104.049 121.449 104.049 121.449 104.049C121.449 104.049 121.449 104.048 121.852 104.345ZM122.085 103.902C122.385 103.889 122.715 104.039 123.011 104.247C123.151 104.346 123.268 104.447 123.35 104.523C123.391 104.561 123.423 104.592 123.444 104.614C123.455 104.625 123.463 104.633 123.471 104.641C123.473 104.643 123.479 104.649 123.485 104.655C123.486 104.656 123.495 104.665 123.505 104.674C123.508 104.677 123.526 104.692 123.549 104.709C123.557 104.715 123.593 104.74 123.644 104.762C123.675 104.773 123.76 104.795 123.815 104.8C123.91 104.796 124.123 104.712 124.222 104.621L123.454 103.981C123.554 103.89 123.767 103.806 123.862 103.802C123.916 103.807 124.002 103.829 124.032 103.84C124.084 103.862 124.119 103.887 124.127 103.893C124.15 103.909 124.167 103.924 124.17 103.927C124.176 103.932 124.18 103.936 124.182 103.938C124.184 103.94 124.186 103.942 124.187 103.943C124.189 103.945 124.19 103.946 124.186 103.942C124.18 103.936 124.169 103.924 124.155 103.91C124.126 103.881 124.084 103.839 124.031 103.79C123.925 103.692 123.773 103.56 123.586 103.429C123.227 103.177 122.672 102.876 122.041 102.903L122.085 103.902ZM124.338 104.298C124.336 103.963 124.255 103.654 124.062 103.381C123.875 103.117 123.611 102.927 123.312 102.775L122.858 103.666C123.076 103.777 123.187 103.875 123.246 103.959C123.299 104.035 123.337 104.134 123.338 104.304L124.338 104.298ZM123.453 103.559C123.439 103.575 123.469 103.542 123.606 103.491C123.725 103.446 123.872 103.406 124.025 103.372C124.175 103.339 124.319 103.314 124.427 103.297C124.48 103.289 124.523 103.283 124.553 103.279C124.568 103.277 124.579 103.275 124.586 103.274C124.59 103.274 124.593 103.274 124.594 103.273C124.595 103.273 124.596 103.273 124.596 103.273C124.596 103.273 124.596 103.273 124.596 103.273C124.596 103.273 124.596 103.273 124.596 103.273C124.596 103.273 124.596 103.273 124.596 103.273C124.596 103.273 124.596 103.273 124.537 102.777C124.478 102.28 124.478 102.28 124.478 102.28C124.478 102.28 124.478 102.28 124.478 102.28C124.478 102.28 124.478 102.28 124.477 102.28C124.477 102.28 124.477 102.28 124.476 102.28C124.475 102.28 124.474 102.281 124.473 102.281C124.47 102.281 124.466 102.282 124.461 102.282C124.451 102.283 124.437 102.285 124.419 102.288C124.384 102.292 124.334 102.3 124.273 102.309C124.152 102.328 123.985 102.357 123.808 102.396C123.633 102.435 123.435 102.487 123.255 102.554C123.094 102.615 122.872 102.714 122.717 102.882L123.453 103.559ZM124.537 102.777C124.9 102.432 124.899 102.432 124.899 102.432C124.899 102.432 124.899 102.432 124.899 102.432C124.898 102.431 124.898 102.431 124.898 102.431C124.897 102.43 124.897 102.429 124.896 102.429C124.894 102.427 124.893 102.426 124.891 102.424C124.888 102.42 124.884 102.416 124.879 102.412C124.87 102.403 124.859 102.393 124.845 102.38C124.818 102.356 124.781 102.325 124.734 102.291C124.641 102.224 124.508 102.142 124.336 102.074C123.983 101.936 123.49 101.863 122.878 102.042L123.158 103.002C123.546 102.888 123.812 102.943 123.969 103.005C124.052 103.037 124.111 103.075 124.146 103.1C124.164 103.113 124.175 103.123 124.18 103.127C124.183 103.129 124.183 103.13 124.182 103.129C124.182 103.129 124.181 103.128 124.18 103.126C124.179 103.126 124.178 103.125 124.177 103.124C124.177 103.124 124.176 103.123 124.176 103.123C124.176 103.122 124.175 103.122 124.175 103.122C124.175 103.122 124.175 103.121 124.175 103.121C124.175 103.121 124.174 103.121 124.537 102.777Z" fill="white" mask="url(#path-48-inside-4)"/>
</g>
<defs>
<clipPath id="clip0">
<rect width="265.59" height="223" fill="white"/>
</clipPath>
</defs>
</svg>
