<svg width="325" height="154" viewBox="0 0 325 154" fill="none" xmlns="http://www.w3.org/2000/svg">
<g clip-path="url(#clip0)">
<path d="M96.6885 126.8C95.5711 136.226 91.4625 144.849 87.0795 153.157C86.9346 153.439 86.7855 153.718 86.6327 154.001H41.0777C40.1564 153.743 39.2469 153.461 38.3413 153.157C33.196 151.47 28.3385 148.897 23.9574 145.537C7.19778 132.536 0.748665 107.969 3.66159 85.9558C5.47285 72.2793 11.0475 58.3157 21.9031 50.9498C27.6347 47.0536 34.9971 45.7873 41.5952 47.2352C41.7678 47.2689 41.9403 47.3111 42.1166 47.3491C47.7933 48.7252 52.8506 52.1444 55.7283 57.653C60.9031 67.5516 57.8217 79.814 55.2775 90.8312C52.7409 101.848 51.3647 115.035 58.7273 123.161C56.2966 115.457 58.6959 106.268 64.5021 101.059C68.8889 97.1292 74.9969 95.656 80.5678 96.8759C81.1009 96.9984 81.6264 97.1376 82.1438 97.3065C83.3945 97.7009 84.6003 98.2445 85.7388 98.9274C94.4224 104.149 97.939 116.175 96.6885 126.8Z" fill="#F2F2F2"/>
<path d="M69.677 153.156C70.9393 153.472 72.2056 153.751 73.4797 154H66.5916C65.6898 153.738 64.792 153.46 63.9023 153.156C61.9459 152.497 60.0197 151.742 58.1236 150.889C50.518 147.453 43.5123 142.295 38.2119 135.431C35.6197 132.106 33.5029 128.383 31.9315 124.384C30.2275 119.866 29.1445 115.103 28.7169 110.248C27.7563 100.286 28.7364 90.0496 30.5672 80.2649C32.4565 70.1237 35.5064 60.2738 39.6468 50.9406C40.1447 49.822 40.6596 48.7104 41.1915 47.6059C41.228 47.515 41.2834 47.4342 41.3534 47.3698C41.4234 47.3055 41.5061 47.2591 41.5952 47.2344C41.7761 47.1966 41.9636 47.2376 42.1166 47.3484C42.3002 47.4618 42.4363 47.6468 42.4969 47.8652C42.5575 48.0836 42.5378 48.3186 42.442 48.5219C38.173 57.4858 34.9369 66.9778 32.8057 76.7867C30.7201 86.3561 29.5362 96.3687 29.9399 106.208C30.3241 115.402 32.5549 124.444 37.616 131.961C42.2382 138.825 48.6205 144.237 55.6812 147.922C60.1502 150.224 64.8448 151.98 69.677 153.156Z" fill="white"/>
<path d="M84.794 154.001H82.7632C82.5358 153.722 82.3162 153.439 82.1007 153.157C77.475 147.105 74.3414 139.896 72.9896 132.194C71.348 122.584 72.625 112.659 76.6316 103.892C77.7495 101.433 79.0666 99.0853 80.5677 96.876C81.1008 96.9984 81.6263 97.1377 82.1437 97.3065C78.1953 102.939 75.5396 109.497 74.3931 116.445C73.3704 122.956 73.7104 129.63 75.3884 135.981C77.0664 142.333 80.04 148.2 84.0923 153.157C84.3195 153.439 84.5548 153.722 84.794 154.001Z" fill="white"/>
<path d="M267.735 146.822C268.03 149.31 269.114 151.586 270.271 153.778C270.309 153.853 270.348 153.926 270.389 154.001H282.411C282.654 153.933 282.895 153.858 283.134 153.778C284.491 153.333 285.773 152.654 286.93 151.767C291.353 148.336 293.055 141.852 292.286 136.042C291.808 132.433 290.337 128.748 287.472 126.804C285.916 125.784 284.06 125.433 282.275 125.823C282.229 125.832 282.184 125.843 282.137 125.853C281.394 126.008 280.69 126.33 280.071 126.799C279.451 127.268 278.931 127.872 278.545 128.573C277.179 131.185 277.992 134.422 278.664 137.329C279.333 140.237 279.696 143.717 277.753 145.862C278.038 144.965 278.096 144.002 277.921 143.074C277.746 142.145 277.344 141.283 276.757 140.576C276.17 139.87 275.419 139.345 274.581 139.054C273.743 138.764 272.849 138.719 271.989 138.925C271.848 138.957 271.71 138.994 271.573 139.038C271.243 139.142 270.925 139.286 270.624 139.466C268.333 140.844 267.405 144.018 267.735 146.822Z" fill="#F2F2F2"/>
<path d="M274.863 153.778C274.53 153.861 274.196 153.935 273.86 154H275.678C275.916 153.931 276.153 153.858 276.388 153.778C276.904 153.604 277.412 153.404 277.913 153.179C279.942 152.292 281.745 150.893 283.168 149.1C283.852 148.222 284.411 147.239 284.825 146.184C285.275 144.992 285.561 143.735 285.674 142.453C285.88 139.804 285.715 137.137 285.185 134.54C284.687 131.864 283.882 129.264 282.789 126.801C282.658 126.506 282.522 126.212 282.381 125.921C282.372 125.897 282.357 125.876 282.339 125.859C282.32 125.842 282.298 125.829 282.275 125.823C282.227 125.813 282.178 125.824 282.137 125.853C282.089 125.883 282.053 125.932 282.037 125.989C282.021 126.047 282.026 126.109 282.051 126.163C283.178 128.528 284.032 131.034 284.595 133.622C285.174 136.161 285.428 138.774 285.351 141.387C285.309 143.818 284.605 146.181 283.325 148.184C282.08 149.987 280.443 151.434 278.557 152.396C277.378 153.004 276.139 153.467 274.863 153.778Z" fill="white"/>
<path d="M270.874 154H271.41C271.47 153.927 271.528 153.852 271.585 153.777C272.805 152.18 273.632 150.277 273.989 148.245C274.422 145.709 274.085 143.089 273.028 140.775C272.733 140.126 272.385 139.507 271.989 138.924C271.848 138.956 271.71 138.993 271.573 139.037C272.615 140.524 273.316 142.255 273.619 144.089C273.889 145.807 273.799 147.568 273.356 149.244C272.913 150.921 272.128 152.469 271.059 153.777C270.999 153.852 270.937 153.927 270.874 154Z" fill="white"/>
<path d="M159.368 89.7032H121.739L121.34 77.2463C121.323 76.7063 121.415 76.1687 121.609 75.6705C121.803 75.1723 122.095 74.7253 122.465 74.3603C122.835 73.9953 123.274 73.7209 123.752 73.5561C124.23 73.3913 124.736 73.34 125.234 73.4056L147.131 76.2926H147.133C150.38 76.3021 153.49 77.6966 155.783 80.1707C158.077 82.6449 159.365 85.9968 159.368 89.4922V89.7032Z" fill="#F9A826"/>
<path d="M142.597 45.5166H116.353C116.004 45.5165 115.658 45.5904 115.335 45.7342C115.013 45.878 114.72 46.0888 114.473 46.3545C114.226 46.6202 114.031 46.9357 113.897 47.2829C113.764 47.6302 113.695 48.0023 113.695 48.3781V76.6354C113.695 77.0112 113.764 77.3833 113.897 77.7306C114.031 78.0778 114.226 78.3933 114.473 78.659C114.72 78.9248 115.013 79.1355 115.335 79.2793C115.658 79.423 116.004 79.497 116.353 79.4969H142.597C142.946 79.497 143.291 79.4231 143.614 79.2793C143.936 79.1355 144.229 78.9248 144.476 78.659C144.723 78.3933 144.919 78.0778 145.052 77.7306C145.186 77.3834 145.254 77.0112 145.254 76.6354V48.3781C145.254 48.0023 145.186 47.6302 145.052 47.2829C144.919 46.9357 144.723 46.6202 144.476 46.3545C144.229 46.0887 143.936 45.878 143.614 45.7342C143.291 45.5904 142.946 45.5165 142.597 45.5166Z" fill="#CCCCCC"/>
<path d="M136.686 66.6459L124.295 69.244C123.56 69.3972 122.799 69.2302 122.178 68.7797C121.557 68.3292 121.128 67.6319 120.984 66.8409L120.031 61.5745C119.889 60.7831 120.044 59.9633 120.462 59.2948C120.881 58.6264 121.528 58.164 122.263 58.009L134.654 55.411C135.389 55.2578 136.15 55.4247 136.771 55.8753C137.392 56.3258 137.822 57.0231 137.965 57.8141L138.918 63.0805C139.06 63.8719 138.905 64.6917 138.487 65.3601C138.068 66.0285 137.421 66.4909 136.686 66.6459Z" fill="#3F3D56"/>
<path d="M134.207 60.4254L124.751 62.4081C124.578 62.4444 124.399 62.4052 124.252 62.2992C124.106 62.1931 124.005 62.0289 123.972 61.8427C123.938 61.6565 123.974 61.4634 124.073 61.3061C124.171 61.1488 124.324 61.04 124.497 61.0038L133.953 59.021C134.126 58.9847 134.305 59.0239 134.451 59.13C134.597 59.236 134.698 59.4002 134.732 59.5865C134.766 59.7727 134.729 59.9657 134.631 60.123C134.532 60.2804 134.38 60.3891 134.207 60.4254Z" fill="white"/>
<path d="M132.369 63.3609L127.478 64.3865C127.305 64.4228 127.126 64.3835 126.979 64.2775C126.833 64.1715 126.732 64.0073 126.699 63.821C126.665 63.6348 126.701 63.4418 126.8 63.2845C126.898 63.1271 127.051 63.0184 127.224 62.9821L132.115 61.9566C132.201 61.9386 132.289 61.939 132.374 61.9577C132.46 61.9764 132.541 62.013 132.613 62.0655C132.686 62.118 132.748 62.1854 132.796 62.2637C132.844 62.342 132.877 62.4298 132.894 62.522C132.911 62.6142 132.91 62.7091 132.893 62.8011C132.876 62.8932 132.842 62.9807 132.793 63.0586C132.744 63.1365 132.682 63.2033 132.609 63.2551C132.536 63.307 132.455 63.343 132.369 63.3609Z" fill="white"/>
<path d="M145.254 48.3781V52.1338H113.695V48.3781C113.695 48.0023 113.764 47.6302 113.897 47.2829C114.031 46.9357 114.226 46.6202 114.473 46.3545C114.72 46.0888 115.013 45.878 115.335 45.7342C115.658 45.5904 116.004 45.5165 116.353 45.5166H142.597C142.946 45.5165 143.291 45.5904 143.614 45.7342C143.936 45.878 144.229 46.0888 144.476 46.3545C144.723 46.6202 144.918 46.9357 145.052 47.2829C145.186 47.6302 145.254 48.0023 145.254 48.3781Z" fill="#B3B3B3"/>
<path d="M208.275 53.3103C208.092 52.6771 207.783 52.0945 207.37 51.6038C206.956 51.113 206.447 50.7259 205.879 50.4697C205.311 50.2136 204.698 50.0946 204.083 50.1212C203.468 50.1478 202.865 50.3193 202.318 50.6236L166.213 36.6758L164.623 46.3875L200.613 57.044C201.149 57.9995 201.992 58.7102 202.981 59.0414C203.971 59.3727 205.04 59.3015 205.984 58.8412C206.928 58.381 207.683 57.5638 208.105 56.5444C208.528 55.525 208.588 54.3743 208.275 53.3103Z" fill="#FFB8B8"/>
<path opacity="0.2" d="M208.275 53.3103C208.092 52.6771 207.783 52.0945 207.37 51.6038C206.956 51.113 206.447 50.7259 205.879 50.4697C205.311 50.2136 204.698 50.0946 204.083 50.1212C203.468 50.1478 202.865 50.3193 202.318 50.6236L166.213 36.6758L164.623 46.3875L200.613 57.044C201.149 57.9995 201.992 58.7102 202.981 59.0414C203.971 59.3727 205.04 59.3015 205.984 58.8412C206.928 58.381 207.683 57.5638 208.105 56.5444C208.528 55.525 208.588 54.3743 208.275 53.3103Z" fill="black"/>
<path d="M172.621 38.4451L169.212 48.0356C169.115 48.3085 168.964 48.5557 168.771 48.7603C168.577 48.9649 168.345 49.1221 168.089 49.2213C167.834 49.3205 167.562 49.3593 167.291 49.335C167.021 49.3107 166.759 49.224 166.522 49.0807L158.236 44.0591C156.942 43.5167 155.901 42.4441 155.341 41.0764C154.78 39.7087 154.746 38.1576 155.247 36.7631C155.747 35.3686 156.74 34.2445 158.009 33.6373C159.277 33.0301 160.718 32.9892 162.014 33.5237L171.267 35.7333C171.532 35.7967 171.781 35.9208 171.998 36.0971C172.214 36.2735 172.392 36.498 172.521 36.7553C172.649 37.0127 172.725 37.2968 172.742 37.5884C172.76 37.88 172.718 38.1722 172.621 38.4451Z" fill="#F9A826"/>
<path d="M211.117 62.1904L198.179 68.5222L199.878 75.4073C203.158 88.7029 204.028 102.554 202.442 116.205L211.901 118.332L219.741 96.8039L216.997 72.3212L211.117 62.1904Z" fill="#F9A826"/>
<path d="M236.501 94.0605C228.001 94.0605 221.074 100.714 220.738 109.046H252.265C251.928 100.714 245.001 94.0605 236.501 94.0605Z" fill="#3F3D56"/>
<path d="M229.884 95.4961C229.442 57.8862 209.548 61.3463 209.548 61.3463C209.548 61.3463 209.921 73.0529 210.099 73.417C222.776 99.2418 201.855 129.518 175.224 123.948C174.722 123.843 174.239 123.736 173.776 123.628C170.402 122.87 167.423 120.756 165.445 117.716C163.466 114.677 162.638 110.94 163.127 107.266C165.751 84.5833 152.703 84.9847 152.703 84.9847H133.624L123.716 75.3833C123.366 75.0444 122.944 74.8029 122.488 74.68C122.031 74.557 121.554 74.5563 121.097 74.678C120.64 74.7996 120.218 75.0399 119.868 75.3778C119.517 75.7157 119.249 76.1409 119.086 76.6163L117.811 80.3415C117.811 80.3415 98.9936 82.4521 100.562 102.291H106.38C106.365 102.855 106.386 103.419 106.442 103.98L149.861 103.6C152.406 103.578 154.653 105.798 154.663 108.538C154.666 109.206 154.543 109.867 154.303 110.482C154.063 111.097 153.71 111.653 153.266 112.118C152.821 112.583 152.294 112.946 151.716 113.187C151.138 113.427 150.521 113.54 149.902 113.518L142.902 113.266C140.746 123.608 146.038 130.573 151.87 134.953C157.36 139.016 163.875 141.171 170.538 141.126H189.555C214.253 141.126 218.565 118.754 218.565 118.754C231.503 112.844 229.884 95.4961 229.884 95.4961Z" fill="#3F3D56"/>
<path d="M235.325 153.368C247.504 153.368 257.377 142.737 257.377 129.624C257.377 116.51 247.504 105.88 235.325 105.88C223.146 105.88 213.273 116.51 213.273 129.624C213.273 142.737 223.146 153.368 235.325 153.368Z" fill="#3F3D56"/>
<path d="M235.325 135.443C238.31 135.443 240.73 132.837 240.73 129.623C240.73 126.409 238.31 123.804 235.325 123.804C232.34 123.804 229.92 126.409 229.92 129.623C229.92 132.837 232.34 135.443 235.325 135.443Z" fill="white"/>
<path d="M123.986 153.368C138.006 153.368 149.371 141.131 149.371 126.036C149.371 110.941 138.006 98.7041 123.986 98.7041C109.967 98.7041 98.6015 110.941 98.6015 126.036C98.6015 141.131 109.967 153.368 123.986 153.368Z" fill="#3F3D56"/>
<path d="M123.986 132.735C127.422 132.735 130.208 129.736 130.208 126.036C130.208 122.336 127.422 119.337 123.986 119.337C120.55 119.337 117.764 122.336 117.764 126.036C117.764 129.736 120.55 132.735 123.986 132.735Z" fill="white"/>
<path d="M198.216 70.3928L193.561 56.7798C193.319 56.0703 193.208 55.3164 193.236 54.5609C193.264 53.8055 193.43 53.0634 193.725 52.377C194.019 51.6907 194.436 51.0735 194.952 50.5607C195.468 50.0478 196.073 49.6495 196.732 49.3883L210.077 44.0986C211.236 43.6389 212.468 43.4296 213.703 43.4827C214.937 43.5357 216.15 43.85 217.272 44.4077C218.393 44.9653 219.402 45.7554 220.24 46.7328C221.078 47.7102 221.729 48.8558 222.156 50.1041C222.541 51.2245 222.738 52.4098 222.737 53.6045C222.732 55.1214 222.413 56.618 221.803 57.9856C221.194 59.3532 220.309 60.5574 219.213 61.5107C218.422 62.1945 217.532 62.7347 216.579 63.1101L198.216 70.3928Z" fill="#3F3D56"/>
<path d="M222.541 53.6049C222.54 55.0909 222.229 56.5577 221.632 57.8975C221.035 59.2372 220.167 60.4158 219.091 61.3465C217.44 60.8777 215.904 60.0274 214.589 58.8548C213.275 57.6822 212.213 56.2154 211.478 54.5564C210.743 52.8973 210.352 51.0859 210.333 49.2478C210.314 47.4098 210.667 45.5894 211.368 43.9131C212.712 43.5983 214.105 43.6117 215.445 43.9524C216.784 44.2931 218.035 44.9524 219.107 45.8819C220.178 46.8115 221.043 47.9876 221.637 49.324C222.231 50.6605 222.54 52.1232 222.541 53.6049Z" fill="#F9A826"/>
<path d="M103.894 105.036C106.925 105.036 109.383 101.823 109.383 97.8596C109.383 93.8964 106.925 90.6836 103.894 90.6836C100.863 90.6836 98.4055 93.8964 98.4055 97.8596C98.4055 101.823 100.863 105.036 103.894 105.036Z" fill="#F9A826"/>
<path d="M176.445 123.26H181.252L183.538 109.838L176.444 109.838L176.445 123.26Z" fill="#FFB8B8"/>
<path d="M175.219 121.571L184.684 121.57H184.685C185.477 121.57 186.261 121.738 186.993 122.065C187.725 122.391 188.39 122.869 188.95 123.473C189.51 124.076 189.955 124.792 190.258 125.58C190.561 126.368 190.717 127.212 190.717 128.065V128.276L175.219 128.277L175.219 121.571Z" fill="#2F2E41"/>
<path d="M182.024 117.751C181.968 117.751 181.912 117.748 181.855 117.743L175.204 117.221C174.935 117.194 174.675 117.101 174.445 116.949C174.215 116.797 174.02 116.59 173.875 116.344C173.731 116.098 173.641 115.82 173.613 115.531C173.584 115.242 173.618 114.949 173.71 114.676L182.612 93.142C182.676 92.95 182.702 92.7459 182.689 92.5426C182.675 92.3392 182.623 92.1411 182.535 91.9605C182.448 91.7778 182.325 91.6172 182.176 91.4892C182.026 91.3612 181.853 91.2686 181.668 91.2177C177.483 90.0396 166.743 86.9026 157.446 83.2321C153.463 81.6595 150.954 79.3869 149.99 76.4774C148.718 72.6417 150.599 69.1436 150.68 68.9968L150.743 68.8818L159.491 69.738L168.975 70.6066L189.758 82.6064C191.5 83.6204 192.823 85.3035 193.463 87.3205C194.104 89.3375 194.016 91.5403 193.216 93.4903L183.634 116.625C183.495 116.96 183.269 117.245 182.984 117.445C182.698 117.645 182.365 117.751 182.024 117.751Z" fill="#2F2E41"/>
<path d="M161.012 27.1346C166.33 27.1346 170.641 22.4929 170.641 16.767C170.641 11.0411 166.33 6.39941 161.012 6.39941C155.694 6.39941 151.383 11.0411 151.383 16.767C151.383 22.4929 155.694 27.1346 161.012 27.1346Z" fill="#FFB8B8"/>
<path d="M173.701 124.527H178.507L180.794 111.105L173.7 111.106L173.701 124.527Z" fill="#FFB8B8"/>
<path d="M172.475 122.837L181.94 122.837H181.941C182.733 122.837 183.517 123.005 184.249 123.331C184.981 123.658 185.646 124.136 186.206 124.739C186.766 125.342 187.21 126.058 187.513 126.846C187.817 127.634 187.973 128.479 187.973 129.332V129.543L172.475 129.543L172.475 122.837Z" fill="#2F2E41"/>
<path d="M179.28 119.018C179.224 119.018 179.168 119.015 179.111 119.009L172.46 118.488C172.191 118.461 171.931 118.368 171.701 118.216C171.47 118.064 171.275 117.857 171.131 117.611C170.987 117.365 170.897 117.087 170.868 116.797C170.84 116.508 170.873 116.216 170.966 115.943L179.868 94.4086C179.932 94.2166 179.958 94.0125 179.944 93.8092C179.931 93.6058 179.879 93.4077 179.791 93.2271C179.703 93.0444 179.581 92.8838 179.432 92.7558C179.282 92.6278 179.109 92.5352 178.924 92.4843C174.738 91.3062 163.999 88.1692 154.702 84.4987C150.718 82.9261 148.21 80.6535 147.245 77.744C145.974 73.9083 147.855 70.4102 147.936 70.2634L147.999 70.1484L156.747 71.0046L166.231 71.8732L187.014 83.873C188.756 84.887 190.078 86.5701 190.719 88.5871C191.36 90.6041 191.271 92.8069 190.471 94.7569L180.89 117.892C180.751 118.227 180.525 118.512 180.239 118.711C179.954 118.911 179.62 119.018 179.28 119.018Z" fill="#2F2E41"/>
<path d="M163.982 33.0129L153.789 29.2139C153.789 29.2139 147.39 34.5072 150.464 47.6386C152.069 54.4149 151.601 61.5678 149.131 68.0353C148.834 68.8355 148.491 69.6153 148.104 70.3701C148.104 70.3701 159.474 85.1442 170.059 74.1692L165.942 52.8523C165.942 52.8523 172.411 38.7115 163.982 33.0129Z" fill="#F9A826"/>
<path d="M162.208 27.4867C160.837 25.2781 159.756 22.2155 161.265 20.1141C162.754 18.0397 165.692 18.3453 167.973 17.4275C171.15 16.149 172.992 12.1302 172.418 8.53109C171.843 4.93199 169.16 1.94845 165.963 0.727675C162.767 -0.493095 159.162 -0.0960719 156.032 1.30972C152.178 3.04027 148.873 6.38789 147.486 10.6285C146.1 14.869 146.841 19.9606 149.717 23.22C152.8 26.7144 157.638 27.6457 162.114 27.5892" fill="#2F2E41"/>
<path d="M153.251 8.64675C151.524 10.1604 148.889 9.4881 147.036 8.15968C145.182 6.83127 143.678 4.93968 141.672 3.89814C138.136 2.06196 133.861 3.2826 130.42 5.3165C126.979 7.35039 123.928 10.1603 120.293 11.7564C116.658 13.3525 112.02 13.4313 109.267 10.4176C108.59 12.5306 108.534 14.8172 109.109 16.9654C109.683 19.1136 110.859 21.0187 112.475 22.4208C114.092 23.8229 116.072 24.6538 118.143 24.8C120.215 24.9462 122.278 24.4007 124.051 23.2378C128.034 20.6256 130.234 15.1485 134.701 13.7068C137.173 12.9089 139.828 13.5515 142.326 14.2475C144.824 14.9435 147.429 15.6955 149.951 15.103C152.472 14.5105 154.83 12.0709 154.51 9.31382L153.251 8.64675Z" fill="#2F2E41"/>
<path d="M207.795 52.8883C207.542 52.2841 207.169 51.7471 206.702 51.3151C206.235 50.883 205.686 50.5665 205.093 50.3877C204.5 50.209 203.878 50.1723 203.27 50.2805C202.663 50.3886 202.085 50.6388 201.577 51.0135L164.149 41.9688L163.684 51.8175L200.62 57.6113C201.262 58.4883 202.179 59.0817 203.199 59.2789C204.22 59.4761 205.272 59.2635 206.156 58.6813C207.041 58.0991 207.696 57.1879 207.998 56.1202C208.3 55.0525 208.228 53.9026 207.795 52.8883Z" fill="#FFB8B8"/>
<path d="M170.711 42.8735L168.427 52.8437C168.362 53.1274 168.241 53.3927 168.072 53.6215C167.903 53.8502 167.691 54.0372 167.449 54.1695C167.207 54.3018 166.941 54.3765 166.67 54.3883C166.399 54.4002 166.129 54.3489 165.877 54.2382L157.079 50.3557C155.732 49.9902 154.575 49.0643 153.862 47.7812C153.148 46.4981 152.936 44.9626 153.273 43.5116C153.61 42.0607 154.467 40.8127 155.657 40.0417C156.847 39.2707 158.273 39.0395 159.621 39.3989L169.057 40.3624C169.327 40.3901 169.588 40.4801 169.823 40.6264C170.058 40.7726 170.261 40.9717 170.418 41.21C170.575 41.4483 170.683 41.7203 170.733 42.0073C170.784 42.2944 170.776 42.5898 170.711 42.8735V42.8735Z" fill="#F9A826"/>
<path d="M203.472 60.7133C204.987 60.7133 206.216 59.3904 206.216 57.7585C206.216 56.1266 204.987 54.8037 203.472 54.8037C201.956 54.8037 200.728 56.1266 200.728 57.7585C200.728 59.3904 201.956 60.7133 203.472 60.7133Z" fill="#F9A826"/>
<path d="M325 153.578C325 153.69 324.958 153.797 324.885 153.876C324.811 153.956 324.712 154 324.608 154H0.392039C0.288063 154 0.188347 153.956 0.114825 153.877C0.0413037 153.798 0 153.69 0 153.578C0 153.466 0.0413037 153.359 0.114825 153.28C0.188347 153.201 0.288063 153.156 0.392039 153.156H324.608C324.712 153.157 324.811 153.201 324.885 153.28C324.958 153.359 325 153.467 325 153.578Z" fill="#3F3D56"/>
</g>
<defs>
<clipPath id="clip0">
<rect width="325" height="154" fill="white"/>
</clipPath>
</defs>
</svg>
